if (_typeface_js && _typeface_js.loadFace) _typeface_js.loadFace({"glyphs":{"S":{"x_min":55.8125,"x_max":624.75,"ha":694,"o":"m 265 330 l 55 330 l 55 247 b 345 -11 55 47 100 -11 b 624 273 537 -11 624 31 b 356 613 624 531 597 550 b 273 705 289 630 273 641 l 273 772 b 337 844 273 819 277 844 b 401 748 394 844 401 837 l 401 700 l 602 700 l 602 820 b 341 1016 602 961 537 1016 b 55 758 126 1016 55 993 l 55 697 b 265 431 55 518 89 475 b 398 329 383 402 398 398 l 398 220 b 332 161 398 177 382 161 b 265 258 265 161 265 188 l 265 330 "},"¦":{"x_min":74.859375,"x_max":227.3125,"ha":308,"o":"m 74 937 l 74 451 l 227 451 l 227 937 l 74 937 m 74 243 l 74 -243 l 227 -243 l 227 243 l 74 243 "},"/":{"x_min":-54,"x_max":458,"ha":411,"o":"m -54 -11 l 108 -11 l 458 1016 l 295 1016 l -54 -11 "},"y":{"x_min":13.953125,"x_max":542,"ha":567,"o":"m 110 0 l 246 0 b 227 -90 239 -31 242 -72 b 167 -113 209 -111 185 -113 b 111 -102 144 -113 128 -106 l 111 -241 b 201 -261 141 -256 184 -261 b 426 -83 320 -261 404 -234 l 542 708 l 340 708 l 279 122 l 276 122 l 215 708 l 13 708 l 110 0 "},"≈":{"x_min":45,"x_max":635.71875,"ha":696,"o":"m 570 639 b 464 542 539 586 511 542 b 360 591 431 542 404 563 b 230 639 330 609 292 639 b 45 494 148 639 81 574 l 111 434 b 220 531 140 480 166 531 b 325 484 260 531 287 512 b 461 433 381 446 413 433 b 635 580 535 433 597 495 l 570 639 m 570 380 b 464 283 537 325 511 283 b 360 332 428 283 400 309 b 230 380 330 350 292 380 b 45 234 148 380 81 316 l 111 176 b 220 273 140 223 166 273 b 325 226 260 273 285 253 b 461 175 379 190 413 175 b 635 320 535 175 598 237 l 570 380 "},"Ž":{"x_min":33.78125,"x_max":530,"ha":592,"o":"m 59 825 l 286 825 l 33 172 l 33 0 l 528 0 l 528 181 l 277 181 l 528 831 l 528 1006 l 59 1006 l 59 825 m 205 1056 l 373 1056 l 530 1261 l 376 1261 l 289 1147 l 202 1261 l 48 1261 l 205 1056 "},"Á":{"x_min":22,"x_max":686,"ha":722,"o":"m 408 413 l 299 413 l 352 866 l 355 866 l 408 413 m 22 0 l 251 0 l 280 241 l 427 241 l 456 0 l 686 0 l 537 1005 l 170 1005 l 22 0 m 242 1055 l 377 1055 l 578 1261 l 367 1261 l 242 1055 "},"g":{"x_min":63.96875,"x_max":567.578125,"ha":644,"o":"m 265 522 b 315 563 265 552 279 563 b 366 522 352 563 366 552 l 366 183 b 315 141 366 152 352 141 b 265 183 279 141 265 152 l 265 522 m 63 168 b 225 -5 63 73 99 -5 b 363 59 285 -5 332 16 l 366 59 l 366 -66 b 314 -113 366 -104 351 -113 b 262 -81 277 -113 262 -104 l 262 -66 l 85 -66 l 85 -104 b 295 -261 85 -197 136 -261 b 567 -62 479 -261 567 -223 l 567 708 l 381 708 l 381 643 l 378 643 b 210 719 334 702 289 719 b 63 533 117 719 63 655 l 63 168 "},"²":{"x_min":28.578125,"x_max":413.78125,"ha":451,"o":"m 28 406 l 411 406 l 411 520 l 181 520 l 181 529 b 276 626 181 580 204 598 b 413 823 398 673 413 687 b 227 1016 413 972 411 1016 b 35 884 96 1016 35 997 l 35 786 l 187 786 l 187 876 b 217 902 187 894 197 902 b 245 844 236 902 245 897 l 245 795 b 170 709 245 740 225 733 b 28 531 58 662 28 616 l 28 406 "},"–":{"x_min":0,"x_max":680.5625,"ha":694,"o":"m 0 290 l 680 290 l 680 445 l 0 445 l 0 290 "},"ë":{"x_min":50.359375,"x_max":581.1875,"ha":644,"o":"m 50 212 b 315 -12 50 22 142 -12 b 581 177 519 -12 581 29 l 581 218 l 377 218 l 377 184 b 319 134 377 143 359 134 b 259 183 268 134 259 145 l 259 302 l 581 302 l 581 522 b 315 718 581 633 536 718 b 50 493 142 718 50 683 l 50 212 m 259 537 b 315 579 259 566 269 579 b 371 537 362 579 371 566 l 371 433 l 259 433 l 259 537 m 92 805 l 269 805 l 269 969 l 92 969 l 92 805 m 362 805 l 539 805 l 539 969 l 362 969 l 362 805 "},"ƒ":{"x_min":-20.046875,"x_max":643.03125,"ha":694,"o":"m -20 -245 b 102 -261 -2 -254 48 -261 b 365 73 256 -261 327 -179 l 430 504 l 570 504 l 570 659 l 449 659 b 579 852 468 804 505 852 b 643 843 602 852 623 847 l 643 1006 b 550 1016 618 1011 579 1016 b 229 659 333 1016 265 904 l 101 659 l 101 504 l 211 504 l 141 48 b 52 -97 125 -56 103 -97 b -20 -76 26 -97 3 -88 l -20 -245 "},"Î":{"x_min":-39.46875,"x_max":442.359375,"ha":411,"o":"m 88 0 l 314 0 l 314 1006 l 88 1006 l 88 0 m -39 1056 l 114 1056 l 201 1170 l 288 1056 l 442 1056 l 285 1261 l 117 1261 l -39 1056 "},"e":{"x_min":50.359375,"x_max":581.1875,"ha":644,"o":"m 50 212 b 315 -12 50 22 142 -12 b 581 177 519 -12 581 29 l 581 218 l 377 218 l 377 184 b 319 134 377 143 359 134 b 259 183 268 134 259 145 l 259 302 l 581 302 l 581 522 b 315 718 581 633 536 718 b 50 493 142 718 50 683 l 50 212 m 259 537 b 315 579 259 566 269 579 b 371 537 362 579 371 566 l 371 433 l 259 433 l 259 537 "},"Ã":{"x_min":22,"x_max":686,"ha":722,"o":"m 408 413 l 299 413 l 352 866 l 355 866 l 408 413 m 22 0 l 251 0 l 280 241 l 427 241 l 456 0 l 686 0 l 537 1005 l 170 1005 l 22 0 m 192 1080 b 251 1137 196 1115 219 1137 b 456 1088 314 1137 368 1088 b 603 1261 534 1088 589 1156 l 514 1261 b 450 1201 509 1225 481 1201 b 264 1254 411 1201 337 1254 b 105 1080 170 1254 125 1186 l 192 1080 "},"J":{"x_min":20.421875,"x_max":518.578125,"ha":592,"o":"m 20 169 b 249 -11 20 56 57 -11 b 518 202 446 -11 518 40 l 518 1005 l 292 1005 l 292 208 b 257 169 292 183 287 169 b 221 208 227 169 221 183 l 221 362 l 20 362 l 20 169 "},"»":{"x_min":63,"x_max":669,"ha":746,"o":"m 63 122 l 271 122 l 391 369 l 271 613 l 64 613 l 182 368 l 63 122 m 340 122 l 549 122 l 669 368 l 549 613 l 340 613 l 460 368 l 340 122 "},"∆":{"x_min":33.109375,"x_max":777.640625,"ha":829,"o":"m 33 0 l 777 0 l 777 119 l 524 1009 l 301 1009 l 33 115 l 33 0 m 223 161 l 342 533 b 404 772 361 618 395 719 l 407 772 b 472 513 419 712 455 594 l 583 161 l 223 161 "},"©":{"x_min":40.828125,"x_max":1048.0625,"ha":1111,"o":"m 656 423 b 551 329 646 358 607 329 b 423 509 475 329 423 390 b 547 684 423 618 469 684 b 656 595 605 684 646 659 l 770 595 b 548 806 764 734 672 806 b 295 506 390 806 295 679 b 537 206 295 325 406 206 b 770 423 680 206 767 304 l 656 423 m 40 502 b 544 -11 40 219 266 -11 b 1048 502 822 -11 1048 219 b 544 1016 1048 786 822 1016 b 40 502 266 1016 40 786 m 193 502 b 544 877 193 719 332 877 b 895 502 756 877 895 719 b 544 127 895 286 756 127 b 193 502 332 127 193 286 "},"˘":{"x_min":-63,"x_max":392,"ha":336,"o":"m -63 1005 b 164 804 -46 873 35 804 b 392 1005 293 804 375 873 l 304 1005 b 164 909 289 931 248 911 b 24 1005 80 911 39 931 l -63 1005 "},"≥":{"x_min":63.96875,"x_max":623.390625,"ha":696,"o":"m 70 866 l 70 734 l 519 504 l 519 501 l 70 270 l 70 137 l 622 441 l 622 563 l 70 866 m 623 -26 l 623 88 l 63 88 l 63 -26 l 623 -26 "},"ò":{"x_min":50.875,"x_max":581.71875,"ha":644,"o":"m 50 213 b 316 -11 50 23 143 -11 b 581 213 489 -11 581 23 l 581 494 b 316 719 581 684 489 719 b 50 494 143 719 50 684 l 50 213 m 260 512 b 316 563 260 555 276 563 b 372 512 355 563 372 555 l 372 195 b 316 144 372 152 355 144 b 260 195 276 144 260 152 l 260 512 m 293 800 l 427 800 l 302 1005 l 91 1005 l 293 800 "},"^":{"x_min":95,"x_max":721,"ha":833,"o":"m 95 484 l 244 484 l 408 850 l 571 484 l 721 484 l 476 1005 l 339 1005 l 95 484 "},"«":{"x_min":63.109375,"x_max":669,"ha":746,"o":"m 460 122 l 669 122 l 549 368 l 667 613 l 460 613 l 340 369 l 460 122 m 182 122 l 391 122 l 271 368 l 391 613 l 182 613 l 63 368 l 182 122 "},"D":{"x_min":74.859375,"x_max":646.53125,"ha":722,"o":"m 300 833 l 360 833 b 420 736 409 833 420 811 l 420 277 b 360 180 420 202 409 180 l 300 180 l 300 833 m 74 0 l 368 0 b 646 376 579 0 646 45 l 646 627 b 368 1005 646 958 579 1005 l 74 1005 l 74 0 "},"∙":{"x_min":49,"x_max":291.28125,"ha":347,"o":"m 49 398 b 170 275 49 330 103 275 b 291 398 236 275 291 330 b 170 522 291 466 236 522 b 49 398 103 522 49 466 "},"ł":{"x_min":2.71875,"x_max":326.671875,"ha":336,"o":"m 63 0 l 265 0 l 265 505 l 326 544 l 326 675 l 265 636 l 265 1005 l 63 1005 l 63 522 l 2 483 l 2 352 l 63 391 l 63 0 "},"ÿ":{"x_min":13.609375,"x_max":541.71875,"ha":567,"o":"m 110 0 l 246 0 b 227 -90 239 -31 242 -72 b 167 -113 209 -111 185 -113 b 111 -102 144 -113 127 -106 l 111 -241 b 201 -261 141 -256 183 -261 b 426 -83 319 -261 404 -234 l 541 708 l 340 708 l 279 122 l 276 122 l 215 708 l 13 708 l 110 0 m 54 806 l 231 806 l 231 970 l 54 970 l 54 806 m 323 806 l 500 806 l 500 970 l 323 970 l 323 806 "},"Ł":{"x_min":14.96875,"x_max":519.9375,"ha":565,"o":"m 74 0 l 519 0 l 519 180 l 300 180 l 300 490 l 450 584 l 450 714 l 300 619 l 300 1005 l 74 1005 l 74 493 l 14 455 l 14 325 l 74 362 l 74 0 "},"í":{"x_min":53.078125,"x_max":389.28125,"ha":336,"o":"m 63 0 l 265 0 l 265 708 l 63 708 l 63 0 m 53 800 l 187 800 l 389 1005 l 178 1005 l 53 800 "},"ˆ":{"x_min":-76,"x_max":406,"ha":336,"o":"m -76 800 l 77 800 l 165 914 l 252 800 l 406 800 l 249 1005 l 80 1005 l -76 800 "},"w":{"x_min":18.890625,"x_max":939,"ha":978,"o":"m 122 0 l 421 0 l 477 561 l 480 561 l 536 0 l 835 0 l 939 708 l 749 708 l 687 130 l 684 130 l 621 708 l 336 708 l 273 130 l 270 130 l 208 708 l 18 708 l 122 0 "},"$":{"x_min":43.1875,"x_max":636.640625,"ha":694,"o":"m 303 626 b 241 755 244 650 241 676 b 303 852 241 836 244 850 l 303 626 m 380 409 b 443 290 440 383 443 359 l 443 252 b 380 154 443 176 442 156 l 380 409 m 43 233 b 290 -11 43 22 143 -8 l 290 -141 l 380 -141 l 380 -11 b 636 270 563 -4 636 51 b 397 597 636 484 628 533 b 393 598 394 597 393 598 l 393 852 b 454 805 450 851 454 841 l 454 715 l 631 715 l 631 830 b 393 1016 631 973 579 1012 l 393 1129 l 303 1129 l 303 1016 b 48 722 92 1011 48 954 b 282 441 48 518 101 494 b 290 438 286 440 289 440 l 290 152 b 228 234 232 155 228 172 l 228 318 l 43 318 l 43 233 "},"∫":{"x_min":38.109375,"x_max":500.890625,"ha":553,"o":"m 500 1216 b 419 1230 484 1223 453 1230 b 254 1162 357 1230 292 1208 b 174 834 197 1095 174 1005 b 193 140 174 584 193 411 b 164 -70 193 20 185 -38 b 112 -97 152 -91 132 -97 b 61 -83 88 -97 73 -88 l 38 -229 b 141 -249 57 -238 95 -249 b 323 -138 210 -249 287 -222 b 366 145 352 -79 366 18 b 348 816 366 411 348 582 b 379 1050 348 930 353 1013 b 441 1087 394 1076 415 1087 b 483 1076 458 1087 470 1082 l 500 1216 "},"\\":{"x_min":-53.78125,"x_max":458,"ha":411,"o":"m 296 -11 l 458 -11 l 108 1016 l -53 1016 l 296 -11 "},"Ì":{"x_min":-23.546875,"x_max":314,"ha":411,"o":"m 88 0 l 314 0 l 314 1005 l 88 1005 l 88 0 m 177 1055 l 312 1055 l 187 1261 l -23 1261 l 177 1055 "},"µ":{"x_min":63.96875,"x_max":567.578125,"ha":644,"o":"m 63 -261 l 265 -261 l 265 25 l 268 25 b 300 0 272 8 284 0 b 363 77 319 0 347 8 l 366 77 l 366 0 l 567 0 l 567 708 l 366 708 l 366 201 b 317 152 366 170 352 152 b 265 201 279 152 265 170 l 265 708 l 63 708 l 63 -261 "},"Ç":{"x_min":60.9375,"x_max":629.859375,"ha":694,"o":"m 60 204 b 288 -10 60 73 120 -10 l 310 -10 l 236 -124 l 265 -158 b 323 -147 285 -149 304 -147 b 379 -195 356 -147 379 -169 b 318 -249 379 -234 350 -249 b 203 -227 275 -249 247 -241 l 180 -281 b 326 -316 220 -295 261 -316 b 499 -185 418 -316 499 -270 b 376 -79 499 -113 440 -79 b 334 -87 361 -79 345 -81 l 331 -84 l 383 -10 b 629 222 565 -8 629 48 l 629 371 l 412 371 l 412 212 b 353 169 412 182 391 169 b 295 212 315 169 295 182 l 295 793 b 354 836 295 823 315 836 b 412 793 391 836 412 823 l 412 661 l 629 661 l 629 844 b 372 1016 629 961 569 1016 l 288 1016 b 60 772 120 1016 60 933 l 60 204 "},"’":{"x_min":50.359375,"x_max":251.8125,"ha":308,"o":"m 50 791 l 136 791 b 137 765 136 781 137 773 b 57 677 137 708 112 686 l 57 572 b 251 766 157 572 251 622 l 251 1005 l 50 1005 l 50 791 "},"-":{"x_min":49,"x_max":404.25,"ha":463,"o":"m 49 277 l 404 277 l 404 458 l 49 458 l 49 277 "},"Q":{"x_min":60.734375,"x_max":678.671875,"ha":722,"o":"m 294 797 b 353 844 294 834 311 844 b 411 797 395 844 411 834 l 411 412 l 409 412 l 384 451 l 315 358 l 411 216 l 411 208 b 353 161 411 170 395 161 b 294 208 311 161 294 170 l 294 797 m 60 195 b 353 -11 60 32 164 -11 b 546 19 435 -11 501 -2 l 602 -62 l 678 32 l 629 101 b 646 195 640 127 646 158 l 646 809 b 353 1016 646 973 542 1016 b 60 809 164 1016 60 973 l 60 195 "},"M":{"x_min":74.859375,"x_max":1008.578125,"ha":1106,"o":"m 404 0 l 662 0 l 808 847 l 811 847 l 803 0 l 1008 0 l 1008 1005 l 653 1005 l 543 213 l 540 213 l 430 1005 l 74 1005 l 74 0 l 276 0 l 276 850 l 279 850 l 404 0 "},"C":{"x_min":61.25,"x_max":630.203125,"ha":694,"o":"m 61 204 b 288 -11 61 73 121 -11 l 372 -11 b 630 222 563 -11 630 44 l 630 370 l 412 370 l 412 212 b 353 169 412 181 392 169 b 295 212 315 169 295 181 l 295 793 b 355 836 295 823 315 836 b 412 793 392 836 412 823 l 412 661 l 630 661 l 630 844 b 372 1016 630 961 570 1016 l 288 1016 b 61 772 121 1016 61 933 l 61 204 "},"œ":{"x_min":50.359375,"x_max":882,"ha":951,"o":"m 50 214 b 317 -10 50 23 142 -10 b 464 47 371 -10 439 -2 b 635 -10 502 -3 560 -10 b 882 179 820 -10 882 30 l 882 219 l 677 219 l 677 186 b 623 136 677 144 660 136 b 564 184 573 136 564 147 l 564 304 l 882 304 l 882 523 b 616 719 882 635 837 719 b 468 664 545 719 498 707 b 315 719 423 717 366 718 b 50 494 142 719 50 685 l 50 214 m 259 512 b 310 564 259 555 276 564 b 363 512 344 564 363 555 l 363 196 b 310 144 363 153 344 144 b 259 196 276 144 259 153 l 259 512 m 564 435 l 564 530 b 617 572 564 560 574 572 b 672 530 662 572 672 560 l 672 435 l 564 435 "},"!":{"x_min":88.46875,"x_max":289.921875,"ha":386,"o":"m 88 308 l 289 308 l 289 1005 l 88 1005 l 88 308 m 88 0 l 289 0 l 289 213 l 88 213 l 88 0 "},"ç":{"x_min":50.171875,"x_max":553.890625,"ha":617,"o":"m 50 214 b 273 -9 50 40 127 -3 l 198 -124 l 227 -158 b 285 -147 247 -149 266 -147 b 341 -195 318 -147 341 -169 b 280 -249 341 -234 312 -249 b 165 -227 238 -249 209 -241 l 142 -281 b 288 -316 182 -295 223 -316 b 461 -185 381 -316 461 -270 b 338 -79 461 -113 402 -79 b 296 -87 323 -79 307 -81 l 293 -84 l 345 -9 b 553 214 534 -3 553 66 l 553 276 l 368 276 l 368 209 b 314 144 368 162 353 144 b 259 209 274 144 259 162 l 259 498 b 314 564 259 546 274 564 b 368 498 353 564 368 546 l 368 462 l 545 462 l 545 583 b 325 719 545 697 420 719 b 50 494 142 719 50 684 l 50 214 "},"È":{"x_min":65.328125,"x_max":525.390625,"ha":592,"o":"m 74 0 l 525 0 l 525 180 l 300 180 l 300 431 l 494 431 l 494 604 l 300 604 l 300 825 l 509 825 l 509 1005 l 74 1005 l 74 0 m 266 1055 l 401 1055 l 276 1261 l 65 1261 l 266 1055 "},"ﬁ":{"x_min":13.609375,"x_max":666.953125,"ha":746,"o":"m 13 553 l 70 553 l 70 0 l 272 0 l 272 553 l 368 553 l 368 708 l 272 708 l 272 815 b 343 869 272 854 299 869 l 352 869 b 371 867 359 869 364 868 l 371 1011 b 262 1017 336 1017 299 1017 b 70 850 157 1017 70 953 l 70 708 l 13 708 l 13 553 m 465 0 l 666 0 l 666 708 l 465 708 l 465 0 m 465 842 l 666 842 l 666 1005 l 465 1005 l 465 842 "},"{":{"x_min":-14.96875,"x_max":389.28125,"ha":463,"o":"m -14 423 b 77 337 23 423 77 400 l 77 175 b 246 -1 77 58 140 -1 l 389 -1 l 389 162 l 343 162 b 287 231 304 162 287 187 l 287 365 b 145 500 285 470 189 493 l 145 502 b 287 637 189 509 285 531 l 287 770 b 343 840 287 815 304 840 l 389 840 l 389 1004 l 246 1004 b 77 827 140 1004 77 944 l 77 665 b -14 579 77 602 23 579 l -14 423 "},"X":{"x_min":29,"x_max":652,"ha":694,"o":"m 29 0 l 258 0 l 339 448 l 341 448 l 422 0 l 652 0 l 529 527 l 641 1005 l 419 1005 l 341 584 l 339 584 l 261 1005 l 39 1005 l 151 527 l 29 0 "},"ô":{"x_min":50.046875,"x_max":581.953125,"ha":644,"o":"m 50 214 b 316 -11 50 23 142 -11 b 581 214 489 -11 581 23 l 581 494 b 316 719 581 684 489 719 b 50 494 142 719 50 684 l 50 214 m 260 512 b 316 564 260 555 276 564 b 371 512 355 564 371 555 l 371 195 b 316 144 371 152 355 144 b 260 195 276 144 260 152 l 260 512 m 74 800 l 228 800 l 316 914 l 403 800 l 557 800 l 400 1005 l 231 1005 l 74 800 "},"¼":{"x_min":5.671875,"x_max":1008.8125,"ha":1042,"o":"m 586 113 l 816 113 l 816 0 l 969 0 l 969 113 l 1008 113 l 1008 227 l 969 227 l 969 598 l 725 598 l 586 263 l 586 113 m 816 227 l 710 227 l 814 515 l 816 515 l 816 227 m 171 -11 l 313 -11 l 850 1016 l 709 1016 l 171 -11 m 5 838 l 92 766 l 174 891 l 177 891 l 177 406 l 345 406 l 345 1005 l 141 1005 l 5 838 "},"#":{"x_min":5.03125,"x_max":674.96875,"ha":694,"o":"m 395 408 l 261 408 l 284 594 l 418 594 l 395 408 m 5 286 l 116 286 l 78 -1 l 206 -1 l 244 286 l 379 286 l 341 -1 l 469 -1 l 507 286 l 634 286 l 634 408 l 523 408 l 546 594 l 674 594 l 674 716 l 563 716 l 601 1004 l 473 1004 l 435 716 l 300 716 l 338 1004 l 210 1004 l 172 716 l 44 716 l 44 594 l 156 594 l 133 408 l 5 408 l 5 286 "},"Ê":{"x_min":49,"x_max":530.828125,"ha":592,"o":"m 74 0 l 525 0 l 525 181 l 300 181 l 300 432 l 494 432 l 494 604 l 300 604 l 300 825 l 509 825 l 509 1006 l 74 1006 l 74 0 m 49 1056 l 202 1056 l 289 1170 l 377 1056 l 530 1056 l 374 1261 l 205 1261 l 49 1056 "},")":{"x_min":77.578125,"x_max":375.671875,"ha":463,"o":"m 77 -11 l 138 -11 b 375 258 303 -11 375 66 l 375 747 b 138 1016 375 938 303 1016 l 77 1016 l 77 852 b 166 731 142 844 166 802 l 166 273 b 77 152 166 202 134 152 l 77 -11 "},"Å":{"x_min":21.78125,"x_max":686,"ha":722,"o":"m 408 413 l 299 413 l 352 866 l 355 866 l 408 413 m 21 0 l 251 0 l 280 241 l 427 241 l 455 0 l 686 0 l 537 1005 l 170 1005 l 21 0 m 208 1190 b 353 1041 208 1102 268 1041 b 499 1190 439 1041 499 1102 b 353 1338 499 1286 434 1338 b 208 1190 273 1338 208 1286 m 289 1190 b 353 1255 289 1226 318 1255 b 417 1190 389 1255 417 1226 b 353 1125 417 1154 389 1125 b 289 1190 318 1125 289 1154 "},"ø":{"x_min":5.125,"x_max":626.875,"ha":644,"o":"m 260 512 b 316 564 260 555 276 564 b 371 517 354 564 370 555 l 262 344 l 260 344 l 260 512 m 371 196 b 316 144 371 153 355 144 b 261 184 280 144 264 151 l 369 355 l 371 355 l 371 196 m 50 214 b 77 79 50 155 58 111 l 5 -27 l 95 -88 l 159 9 b 316 -10 198 -6 251 -10 b 581 214 489 -10 581 23 l 581 494 b 556 628 581 551 573 594 l 626 736 l 537 797 l 476 699 b 316 719 437 714 382 719 b 50 494 142 719 50 685 l 50 214 "},"â":{"x_min":31.0625,"x_max":542.828125,"ha":617,"o":"m 61 504 l 237 504 l 237 543 b 286 579 237 569 257 579 b 338 544 320 579 338 568 l 338 389 b 205 434 300 420 254 434 b 31 218 95 434 31 391 b 198 -10 31 72 59 -10 b 344 59 274 -10 300 0 l 346 59 l 346 0 l 540 0 l 540 518 b 282 718 540 692 462 718 b 61 593 129 718 61 697 l 61 504 m 240 244 b 289 304 240 291 257 304 b 338 252 329 304 338 289 l 338 195 b 289 144 338 168 331 144 b 240 204 252 144 242 158 l 240 244 m 61 799 l 214 799 l 301 914 l 389 799 l 542 799 l 386 1005 l 217 1005 l 61 799 "},"}":{"x_min":63.96875,"x_max":468.21875,"ha":463,"o":"m 468 579 b 375 665 430 579 375 602 l 375 827 b 206 1004 375 944 313 1004 l 63 1004 l 63 840 l 110 840 b 166 770 148 840 166 815 l 166 637 b 307 502 167 531 264 509 l 307 500 b 166 365 264 493 167 470 l 166 231 b 110 162 166 187 148 162 l 63 162 l 63 -1 l 206 -1 b 375 175 313 -1 375 58 l 375 337 b 468 423 375 400 430 423 l 468 579 "},"‰":{"x_min":24.90625,"x_max":1336.625,"ha":1389,"o":"m 1127 436 b 1163 462 1127 455 1133 462 b 1200 436 1193 462 1200 455 l 1200 154 b 1163 127 1200 134 1193 127 b 1127 154 1133 127 1127 134 l 1127 436 m 990 165 b 1163 -11 990 25 1045 -11 b 1336 165 1288 -11 1336 45 l 1336 438 b 1163 609 1336 580 1287 609 b 990 438 1060 609 990 580 l 990 165 m 589 165 b 762 -11 589 25 643 -11 b 935 165 887 -11 935 45 l 935 438 b 762 609 935 580 886 609 b 589 438 658 609 589 580 l 589 165 m 725 436 b 762 462 725 455 732 462 b 799 436 792 462 799 455 l 799 154 b 762 127 799 134 792 127 b 725 154 732 127 725 134 l 725 436 m 24 572 b 197 395 24 431 79 395 b 370 572 322 395 370 452 l 370 845 b 197 1016 370 987 321 1016 b 24 845 94 1016 24 987 l 24 572 m 161 843 b 197 869 161 862 167 869 b 234 843 227 869 234 862 l 234 561 b 197 534 234 541 227 534 b 161 561 167 534 161 541 l 161 843 m 140 -8 l 282 -8 l 819 1015 l 677 1015 l 140 -8 "},"Ä":{"x_min":22.15625,"x_max":685.84375,"ha":722,"o":"m 408 413 l 299 413 l 352 866 l 355 866 l 408 413 m 22 0 l 252 0 l 280 241 l 427 241 l 455 0 l 685 0 l 537 1005 l 170 1005 l 22 0 m 131 1062 l 307 1062 l 307 1226 l 131 1226 l 131 1062 m 400 1062 l 576 1062 l 576 1226 l 400 1226 l 400 1062 "},"¸":{"x_min":-2.703125,"x_max":315.796875,"ha":336,"o":"m -2 -281 b 142 -316 36 -295 77 -316 b 315 -185 235 -316 315 -270 b 193 -79 315 -113 257 -79 b 151 -87 178 -79 161 -81 l 148 -84 l 206 0 l 133 0 l 53 -124 l 81 -158 b 140 -147 102 -149 121 -147 b 196 -195 172 -147 196 -169 b 134 -249 196 -234 167 -249 b 20 -227 92 -249 63 -241 l -2 -281 "},"a":{"x_min":31.3125,"x_max":540.359375,"ha":617,"o":"m 61 504 l 238 504 l 238 543 b 287 579 238 569 257 579 b 338 544 321 579 338 568 l 338 389 b 205 434 300 420 254 434 b 31 218 95 434 31 391 b 198 -10 31 72 59 -10 b 344 59 274 -10 300 0 l 347 59 l 347 0 l 540 0 l 540 518 b 283 718 540 691 462 718 b 61 593 129 718 61 697 l 61 504 m 240 244 b 289 304 240 291 257 304 b 338 252 329 304 338 289 l 338 195 b 289 144 338 168 332 144 b 240 204 253 144 242 158 l 240 244 "},"—":{"x_min":0,"x_max":1361.109375,"ha":1389,"o":"m 0 290 l 1361 290 l 1361 445 l 0 445 l 0 290 "},"=":{"x_min":63.96875,"x_max":752.703125,"ha":833,"o":"m 63 429 l 752 429 l 752 584 l 63 584 l 63 429 m 63 118 l 752 118 l 752 273 l 63 273 l 63 118 "},"N":{"x_min":83.03125,"x_max":774.46875,"ha":875,"o":"m 445 0 l 774 0 l 774 1005 l 564 1005 l 581 224 l 578 222 l 412 1005 l 83 1005 l 83 0 l 291 0 l 277 783 l 280 783 l 445 0 "},"˚":{"x_min":19.0625,"x_max":310.328125,"ha":336,"o":"m 19 948 b 164 800 19 861 78 800 b 310 948 250 800 310 861 b 164 1097 310 1044 245 1097 b 19 948 84 1097 19 1044 m 100 948 b 164 1013 100 984 129 1013 b 228 948 200 1013 228 984 b 164 883 228 912 200 883 b 100 948 129 883 100 912 "},"ú":{"x_min":63.703125,"x_max":567.0625,"ha":644,"o":"m 63 151 b 221 -11 63 29 133 -11 b 363 77 286 -11 334 15 l 365 77 l 365 0 l 567 0 l 567 708 l 365 708 l 365 201 b 316 152 365 170 352 152 b 265 201 278 152 265 170 l 265 708 l 63 708 l 63 151 m 203 800 l 338 800 l 539 1005 l 329 1005 l 203 800 "},"⁄":{"x_min":-226,"x_max":453,"ha":232,"o":"m -226 -11 l -84 -11 l 453 1016 l 311 1016 l -226 -11 "},"2":{"x_min":66.6875,"x_max":601.609375,"ha":694,"o":"m 76 634 l 285 634 l 285 809 b 332 852 285 838 300 852 b 375 756 363 852 375 843 l 375 648 b 283 504 375 555 370 544 b 66 208 111 425 66 348 l 66 0 l 596 0 l 596 172 l 276 172 l 276 202 b 413 365 276 288 310 316 b 601 694 592 448 601 468 b 340 1016 601 943 598 1016 b 76 795 170 1016 76 983 l 76 634 "},"ü":{"x_min":63.96875,"x_max":567.578125,"ha":644,"o":"m 63 151 b 221 -11 63 29 133 -11 b 363 77 287 -11 334 15 l 366 77 l 366 0 l 567 0 l 567 708 l 366 708 l 366 201 b 317 152 366 170 352 152 b 265 201 279 152 265 170 l 265 708 l 63 708 l 63 151 m 92 806 l 269 806 l 269 970 l 92 970 l 92 806 m 362 806 l 539 806 l 539 970 l 362 970 l 362 806 "},"¯":{"x_min":-61.25,"x_max":390.640625,"ha":336,"o":"m -61 900 l 390 900 l 390 1005 l -61 1005 l -61 900 "},"Z":{"x_min":33.78125,"x_max":528.78125,"ha":592,"o":"m 59 825 l 286 825 l 33 172 l 33 0 l 528 0 l 528 180 l 277 180 l 528 830 l 528 1005 l 59 1005 l 59 825 "},"u":{"x_min":63.96875,"x_max":567.578125,"ha":644,"o":"m 63 151 b 221 -11 63 29 133 -11 b 363 77 287 -11 334 15 l 366 77 l 366 0 l 567 0 l 567 708 l 366 708 l 366 201 b 317 152 366 170 352 152 b 265 201 279 152 265 170 l 265 708 l 63 708 l 63 151 "},"˜":{"x_min":-84.171875,"x_max":414,"ha":336,"o":"m 2 825 b 62 881 7 859 30 881 b 267 833 125 881 179 833 b 414 1005 345 833 400 901 l 325 1005 b 261 945 320 969 292 945 b 75 998 222 945 148 998 b -84 825 -18 998 -63 930 l 2 825 "},"Ó":{"x_min":60.90625,"x_max":646.046875,"ha":722,"o":"m 412 208 b 353 161 412 170 395 161 b 295 208 311 161 295 170 l 295 797 b 353 844 295 834 311 844 b 412 797 395 844 412 834 l 412 208 m 60 195 b 353 -11 60 31 164 -11 b 646 195 542 -11 646 31 l 646 809 b 353 1016 646 973 542 1016 b 60 809 164 1016 60 973 l 60 195 m 241 1055 l 376 1055 l 577 1261 l 367 1261 l 241 1055 "},"k":{"x_min":63.96875,"x_max":590.71875,"ha":592,"o":"m 63 0 l 265 0 l 265 350 l 268 350 l 375 0 l 590 0 l 454 397 l 558 708 l 359 708 l 268 448 l 265 448 l 265 1005 l 63 1005 l 63 0 "},"ˇ":{"x_min":-75.828125,"x_max":406,"ha":336,"o":"m 80 800 l 249 800 l 406 1005 l 252 1005 l 165 891 l 77 1005 l -75 1005 l 80 800 "},"Ù":{"x_min":68.296875,"x_max":639.953125,"ha":722,"o":"m 639 1005 l 414 1005 l 414 233 b 354 169 414 194 399 169 b 294 233 309 169 294 194 l 294 1005 l 68 1005 l 68 240 b 354 -11 68 16 173 -11 b 639 240 535 -11 639 16 l 639 1005 m 330 1055 l 465 1055 l 340 1261 l 129 1261 l 330 1055 "},"Ÿ":{"x_min":0,"x_max":631.5625,"ha":644,"o":"m 206 0 l 424 0 l 424 325 l 631 1005 l 408 1005 l 317 552 l 314 552 l 223 1005 l 0 1005 l 206 325 l 206 0 m 92 1062 l 269 1062 l 269 1226 l 92 1226 l 92 1062 m 362 1062 l 539 1062 l 539 1226 l 362 1226 l 362 1062 "},"€":{"x_min":6.8125,"x_max":664.21875,"ha":694,"o":"m 500 479 l 341 479 l 341 563 l 530 563 l 571 684 l 341 684 l 341 730 b 441 852 341 776 352 852 l 469 852 b 604 763 556 852 588 805 l 664 936 b 449 1016 646 956 575 1016 l 401 1016 b 115 744 197 1016 115 873 l 115 684 l 55 684 l 13 563 l 115 563 l 115 479 l 49 479 l 6 358 l 115 358 l 115 298 b 394 -11 115 161 171 -11 l 445 -11 b 623 30 560 -11 609 18 l 623 212 b 473 152 575 163 513 152 l 445 152 b 341 311 351 152 341 237 l 341 358 l 458 358 l 500 479 "},"¢":{"x_min":82.734375,"x_max":612.84375,"ha":694,"o":"m 288 517 b 345 572 288 560 304 572 b 400 567 374 572 388 569 l 291 300 l 288 300 l 288 517 m 86 230 b 165 26 86 119 114 58 l 82 -175 l 172 -175 l 243 -3 b 349 -11 273 -9 310 -11 b 586 179 566 -11 586 65 l 586 276 l 409 276 l 409 191 b 341 136 409 149 397 136 b 300 144 318 136 306 140 l 434 464 l 578 464 l 578 583 b 533 677 578 625 562 654 l 612 865 l 524 865 l 454 709 b 332 720 419 717 375 720 b 86 480 179 720 86 685 l 86 230 "},"Ω":{"x_min":36.75,"x_max":801.703125,"ha":858,"o":"m 191 163 l 36 163 l 36 0 l 366 0 l 366 118 b 246 513 304 163 246 304 b 421 834 246 701 311 834 b 590 522 536 834 590 694 b 472 118 590 291 530 165 l 472 0 l 801 0 l 801 163 l 643 163 l 643 168 b 782 569 713 250 782 398 b 424 1005 782 756 671 1005 b 54 555 198 1005 54 793 b 191 168 54 386 123 251 l 191 163 "},"ß":{"x_min":63.96875,"x_max":604.328125,"ha":668,"o":"m 63 0 l 265 0 l 265 812 b 322 861 265 855 288 861 b 381 793 368 861 381 850 l 381 704 b 310 631 381 656 366 640 l 310 459 b 402 338 383 448 402 426 l 402 247 b 348 161 402 176 389 161 b 308 169 334 161 321 165 l 308 11 b 390 -11 332 -4 368 -11 b 604 226 579 -11 602 115 l 604 344 b 421 558 604 484 551 537 l 421 561 b 574 769 548 580 574 658 b 317 1016 574 948 502 1016 b 63 790 137 1016 63 943 l 63 0 "},"é":{"x_min":50.28125,"x_max":581.921875,"ha":644,"o":"m 50 212 b 315 -12 50 22 142 -12 b 581 177 520 -12 581 29 l 581 218 l 377 218 l 377 184 b 320 134 377 143 359 134 b 260 183 268 134 260 145 l 260 302 l 581 302 l 581 522 b 315 718 581 633 536 718 b 50 493 142 718 50 683 l 50 212 m 260 537 b 315 579 260 566 269 579 b 371 537 362 579 371 566 l 371 433 l 260 433 l 260 537 m 204 798 l 339 798 l 541 1004 l 329 1004 l 204 798 "},"s":{"x_min":47.640625,"x_max":533.71875,"ha":593,"o":"m 51 155 b 295 -12 51 19 115 -12 b 533 240 458 -12 537 19 b 340 444 530 395 499 419 b 249 515 257 456 249 468 b 295 579 249 563 257 579 b 340 529 326 579 340 561 l 340 495 l 517 495 l 517 577 b 284 718 517 679 460 722 b 47 481 99 713 47 688 b 223 276 47 344 81 297 b 332 198 322 261 328 258 b 284 134 336 145 321 134 b 236 198 247 134 236 145 l 236 218 l 51 218 l 51 155 "},"B":{"x_min":74.859375,"x_max":671.03125,"ha":747,"o":"m 300 833 l 355 833 b 428 745 420 833 428 811 l 428 684 b 355 595 428 618 420 595 l 300 595 l 300 833 m 74 0 l 445 0 b 671 286 623 0 671 75 b 507 520 671 408 647 509 l 507 523 b 654 762 645 547 654 630 b 408 1005 654 963 604 1005 l 74 1005 l 74 0 m 300 431 l 367 431 b 436 340 420 431 436 415 l 436 265 b 367 172 436 188 423 172 l 300 172 l 300 431 "},"…":{"x_min":126.578125,"x_max":1234.53125,"ha":1389,"o":"m 126 0 l 328 0 l 328 213 l 126 213 l 126 0 m 579 0 l 781 0 l 781 213 l 579 213 l 579 0 m 1033 0 l 1234 0 l 1234 213 l 1033 213 l 1033 0 "},"?":{"x_min":9.53125,"x_max":553.96875,"ha":592,"o":"m 9 700 l 219 700 l 219 804 b 277 852 219 837 232 852 b 336 752 328 852 336 843 b 264 586 336 640 330 630 b 157 418 176 529 157 506 l 157 306 l 367 306 l 367 379 b 450 480 367 422 371 431 b 553 729 529 529 553 555 b 255 1016 553 977 510 1016 b 9 784 76 1016 9 976 l 9 700 m 157 0 l 367 0 l 367 213 l 157 213 l 157 0 "},"H":{"x_min":74.859375,"x_max":657.421875,"ha":747,"o":"m 74 0 l 300 0 l 300 431 l 431 431 l 431 0 l 657 0 l 657 1005 l 431 1005 l 431 612 l 300 612 l 300 1005 l 74 1005 l 74 0 "},"î":{"x_min":-76.21875,"x_max":405.609375,"ha":336,"o":"m 63 0 l 265 0 l 265 708 l 63 708 l 63 0 m -76 800 l 77 800 l 164 914 l 251 800 l 405 800 l 249 1005 l 80 1005 l -76 800 "},"c":{"x_min":50.359375,"x_max":553.96875,"ha":617,"o":"m 50 213 b 317 -11 50 23 142 -11 b 553 213 533 -11 553 58 l 553 276 l 368 276 l 368 209 b 314 144 368 162 353 144 b 259 209 274 144 259 162 l 259 498 b 314 563 259 545 274 563 b 368 498 353 563 368 545 l 368 462 l 545 462 l 545 583 b 325 719 545 697 420 719 b 50 494 142 719 50 684 l 50 213 "},"¶":{"x_min":44.921875,"x_max":721.390625,"ha":861,"o":"m 296 0 l 449 0 l 449 883 l 568 883 l 568 0 l 721 0 l 721 1005 l 314 1005 b 44 788 160 1005 44 962 b 296 577 44 654 133 579 l 296 0 "},"−":{"x_min":63.96875,"x_max":752.703125,"ha":833,"o":"m 63 273 l 752 273 l 752 429 l 63 429 l 63 273 "},"≠":{"x_min":59.984375,"x_max":622.03125,"ha":696,"o":"m 510 715 l 426 747 l 367 602 l 59 602 l 59 490 l 329 490 l 258 312 l 59 312 l 59 200 l 220 200 l 174 86 l 258 54 l 317 200 l 622 200 l 622 312 l 355 312 l 427 490 l 622 490 l 622 602 l 464 602 l 510 715 "},"•":{"x_min":93.921875,"x_max":586.640625,"ha":694,"o":"m 93 502 b 340 251 93 363 204 251 b 586 502 476 251 586 363 b 340 754 586 641 476 754 b 93 502 204 754 93 641 "},"¥":{"x_min":28.578125,"x_max":651.96875,"ha":694,"o":"m 235 0 l 445 0 l 445 156 l 635 156 l 635 287 l 445 287 l 445 325 l 466 398 l 635 398 l 635 529 l 507 529 l 651 1005 l 432 1005 l 341 552 l 338 552 l 247 1005 l 28 1005 l 172 529 l 44 529 l 44 398 l 213 398 l 235 325 l 235 287 l 44 287 l 44 156 l 235 156 l 235 0 "},"(":{"x_min":77.578125,"x_max":375.671875,"ha":463,"o":"m 77 258 b 314 -11 77 66 149 -11 l 375 -11 l 375 152 b 287 273 310 161 287 202 l 287 731 b 375 852 287 802 318 852 l 375 1016 l 314 1016 b 77 747 149 1016 77 938 l 77 258 "},"U":{"x_min":68.0625,"x_max":639.71875,"ha":722,"o":"m 639 1005 l 413 1005 l 413 233 b 353 169 413 194 398 169 b 294 233 308 169 294 194 l 294 1005 l 68 1005 l 68 240 b 353 -11 68 16 172 -11 b 639 240 534 -11 639 16 l 639 1005 "},"◊":{"x_min":63,"x_max":692,"ha":769,"o":"m 692 494 l 460 1059 l 305 1059 l 63 494 l 294 -69 l 449 -69 l 692 494 m 524 490 l 400 184 b 378 95 395 170 382 118 l 372 95 b 350 187 367 116 359 156 l 230 500 l 353 794 b 377 893 362 826 372 862 l 382 893 b 407 794 388 863 397 825 l 524 490 "},"Ñ":{"x_min":82.765625,"x_max":774.21875,"ha":875,"o":"m 444 0 l 774 0 l 774 1005 l 564 1005 l 580 224 l 578 222 l 412 1005 l 82 1005 l 82 0 l 291 0 l 277 783 l 280 783 l 444 0 m 266 1080 b 326 1137 270 1115 293 1137 b 530 1088 389 1137 443 1088 b 677 1260 609 1088 663 1156 l 589 1260 b 525 1201 583 1224 556 1201 b 338 1253 485 1201 412 1253 b 179 1080 244 1253 199 1185 l 266 1080 "},"F":{"x_min":74.859375,"x_max":500.890625,"ha":540,"o":"m 74 0 l 300 0 l 300 395 l 483 395 l 483 576 l 300 576 l 300 825 l 500 825 l 500 1005 l 74 1005 l 74 0 "},"­":{"x_min":49,"x_max":404.25,"ha":463,"o":"m 49 277 l 404 277 l 404 458 l 49 458 l 49 277 "},":":{"x_min":69.421875,"x_max":270.859375,"ha":347,"o":"m 69 0 l 270 0 l 270 213 l 69 213 l 69 0 m 69 494 l 270 494 l 270 708 l 69 708 l 69 494 "},"Û":{"x_min":68,"x_max":640,"ha":722,"o":"m 640 1006 l 413 1006 l 413 234 b 354 170 413 195 398 170 b 294 234 309 170 294 195 l 294 1006 l 68 1006 l 68 240 b 354 -10 68 17 172 -10 b 640 240 535 -10 640 17 l 640 1006 m 112 1056 l 266 1056 l 354 1170 l 441 1056 l 595 1056 l 438 1261 l 269 1261 l 112 1056 "},"*":{"x_min":29.8125,"x_max":601.1875,"ha":644,"o":"m 231 752 l 315 819 l 399 752 l 399 635 l 315 569 l 231 635 l 231 752 m 111 431 l 250 366 l 314 560 l 316 560 l 380 366 l 519 431 l 408 635 l 601 616 l 601 766 l 408 752 l 519 951 l 379 1017 l 316 827 l 314 827 l 251 1017 l 111 951 l 222 752 l 29 766 l 29 616 l 222 635 l 111 431 "},"†":{"x_min":44.921875,"x_max":510.421875,"ha":567,"o":"m 44 569 l 176 569 l 176 0 l 378 0 l 378 569 l 510 569 l 510 758 l 378 758 l 378 1005 l 176 1005 l 176 758 l 44 758 l 44 569 "},"∕":{"x_min":-226,"x_max":453,"ha":232,"o":"m -226 -11 l -84 -11 l 453 1016 l 311 1016 l -226 -11 "},"°":{"x_min":77.578125,"x_max":466.859375,"ha":556,"o":"m 77 818 b 272 619 77 706 163 619 b 466 818 381 619 466 706 b 272 1016 466 929 381 1016 b 77 818 163 1016 77 929 m 167 818 b 272 925 167 877 213 925 b 377 818 330 925 377 877 b 272 711 377 758 330 711 b 167 818 213 711 167 758 "},"V":{"x_min":17.828125,"x_max":663,"ha":694,"o":"m 148 0 l 532 0 l 663 1005 l 431 1005 l 341 122 l 339 122 l 249 1005 l 17 1005 l 148 0 "},"å":{"x_min":31.3125,"x_max":540.359375,"ha":617,"o":"m 61 504 l 238 504 l 238 543 b 287 579 238 569 257 579 b 338 544 321 579 338 568 l 338 389 b 205 434 300 420 254 434 b 31 218 95 434 31 391 b 198 -10 31 72 59 -10 b 344 59 274 -10 300 0 l 347 59 l 347 0 l 540 0 l 540 518 b 283 718 540 691 462 718 b 61 593 129 718 61 697 l 61 504 m 240 244 b 289 304 240 291 257 304 b 338 252 329 304 338 289 l 338 195 b 289 144 338 168 332 144 b 240 204 253 144 242 158 l 240 244 m 156 947 b 302 798 156 859 216 798 b 447 947 387 798 447 859 b 302 1095 447 1043 382 1095 b 156 947 221 1095 156 1043 m 238 947 b 302 1012 238 983 266 1012 b 366 947 337 1012 366 983 b 302 881 366 911 337 881 b 238 947 266 881 238 911 "}," ":{"x_min":0,"x_max":0,"ha":347},"0":{"x_min":57.109375,"x_max":623.390625,"ha":694,"o":"m 283 806 b 340 852 283 841 299 852 b 397 815 381 852 397 843 l 397 198 b 340 152 397 163 381 152 b 283 198 299 152 283 163 l 283 806 m 57 220 b 340 -11 57 31 137 -11 b 623 220 543 -11 623 31 l 623 755 b 340 1016 623 973 543 1016 b 57 755 147 1016 54 969 l 57 220 "},"”":{"x_min":44.921875,"x_max":509.0625,"ha":565,"o":"m 51 572 b 246 766 152 572 246 622 l 246 1005 l 44 1005 l 44 791 l 130 791 b 132 765 132 781 132 773 b 51 677 132 708 107 686 l 51 572 m 314 572 b 509 766 415 572 509 622 l 509 1005 l 307 1005 l 307 791 l 393 791 b 394 765 394 781 394 773 b 314 677 394 708 370 686 l 314 572 "},"¾":{"x_min":5.671875,"x_max":1008.8125,"ha":1042,"o":"m 118 658 l 181 658 b 239 588 234 658 239 655 b 197 509 239 523 235 509 b 158 550 162 509 158 523 l 158 598 l 5 598 l 5 518 b 189 395 5 437 28 395 b 400 563 371 395 400 440 b 307 719 400 668 392 708 l 307 725 b 392 879 379 737 392 759 b 193 1016 392 977 363 1016 b 8 900 61 1016 8 983 l 8 836 l 160 836 l 160 873 b 196 902 160 898 171 902 b 231 856 224 902 231 898 b 158 772 231 780 226 772 l 118 772 l 118 658 m 586 113 l 816 113 l 816 0 l 969 0 l 969 113 l 1008 113 l 1008 227 l 969 227 l 969 598 l 725 598 l 586 263 l 586 113 m 171 -11 l 313 -11 l 850 1016 l 709 1016 l 171 -11 m 816 227 l 710 227 l 814 515 l 816 515 l 816 227 "},"@":{"x_min":40.671875,"x_max":1047.890625,"ha":1111,"o":"m 416 458 b 559 621 416 537 474 621 b 666 505 623 621 666 574 b 515 346 666 427 605 346 b 416 458 446 351 416 394 m 707 687 b 541 769 668 744 609 769 b 255 442 368 769 255 609 b 481 199 255 312 361 199 b 619 271 548 199 587 227 l 621 271 b 698 199 623 224 657 199 b 1047 596 782 199 1047 294 b 567 1016 1047 852 812 1016 b 40 502 277 1016 40 794 b 574 -11 40 180 285 -14 b 986 201 745 -11 890 64 l 860 206 b 587 110 789 148 694 110 b 184 502 352 110 184 263 b 561 894 184 724 333 894 b 928 553 768 894 928 774 b 787 334 928 412 847 334 b 770 353 777 334 770 339 b 779 416 770 366 772 381 l 849 753 l 723 753 l 707 687 "},"ö":{"x_min":50.359375,"x_max":581.1875,"ha":644,"o":"m 50 213 b 315 -11 50 23 142 -11 b 581 213 488 -11 581 23 l 581 494 b 315 719 581 684 488 719 b 50 494 142 719 50 684 l 50 213 m 259 512 b 315 563 259 555 276 563 b 371 512 355 563 371 555 l 371 195 b 315 144 371 152 355 144 b 259 195 276 144 259 152 l 259 512 m 92 806 l 269 806 l 269 970 l 92 970 l 92 806 m 362 806 l 539 806 l 539 970 l 362 970 l 362 806 "},"i":{"x_min":63.96875,"x_max":265.421875,"ha":336,"o":"m 63 0 l 265 0 l 265 708 l 63 708 l 63 0 m 63 841 l 265 841 l 265 1005 l 63 1005 l 63 841 "},"≤":{"x_min":62.609375,"x_max":624.75,"ha":696,"o":"m 619 137 l 619 270 l 168 501 l 168 504 l 617 734 l 617 866 l 66 563 l 66 441 l 619 137 m 624 -26 l 624 88 l 62 88 l 62 -26 l 624 -26 "},"Õ":{"x_min":60.75,"x_max":646.03125,"ha":722,"o":"m 411 208 b 353 161 411 170 395 161 b 294 208 311 161 294 170 l 294 797 b 353 844 294 834 311 844 b 411 797 395 844 411 834 l 411 208 m 60 195 b 353 -11 60 31 164 -11 b 646 195 542 -11 646 31 l 646 809 b 353 1016 646 973 542 1016 b 60 809 164 1016 60 973 l 60 195 m 191 1080 b 251 1137 195 1115 218 1137 b 455 1088 313 1137 368 1088 b 602 1261 534 1088 588 1156 l 514 1261 b 450 1201 508 1225 481 1201 b 263 1254 410 1201 337 1254 b 104 1080 169 1254 124 1186 l 191 1080 "},"þ":{"x_min":63.96875,"x_max":567.578125,"ha":644,"o":"m 265 516 b 311 555 265 543 281 555 b 357 516 341 555 357 543 l 357 191 b 313 152 357 165 341 152 b 265 191 281 152 265 165 l 265 516 m 63 -261 l 265 -261 l 265 62 l 268 62 b 416 -11 300 15 344 -11 b 567 131 502 -11 567 22 l 567 526 b 405 719 567 670 528 719 b 268 634 333 719 298 708 l 265 634 l 265 1005 l 63 1005 l 63 -261 "},"]":{"x_min":77.578125,"x_max":375.671875,"ha":463,"o":"m 166 163 l 77 163 l 77 0 l 375 0 l 375 1005 l 77 1005 l 77 841 l 166 841 l 166 163 "},"m":{"x_min":63.96875,"x_max":869.75,"ha":953,"o":"m 63 0 l 265 0 l 265 507 b 314 556 265 537 279 556 b 366 507 352 556 366 537 l 366 0 l 567 0 l 567 507 b 616 556 567 537 581 556 b 668 507 654 556 668 537 l 668 0 l 869 0 l 869 557 b 718 719 869 679 800 719 b 570 631 646 719 598 693 b 417 719 537 703 476 721 b 268 631 344 719 296 693 l 265 631 l 265 708 l 63 708 l 63 0 "},"8":{"x_min":43.5625,"x_max":637,"ha":694,"o":"m 277 387 b 340 436 277 420 294 436 b 402 387 386 436 402 420 l 402 201 b 340 152 402 168 386 152 b 277 201 294 152 277 168 l 277 387 m 277 802 b 340 852 277 838 292 852 b 402 802 387 852 402 838 l 402 633 b 340 583 402 597 387 583 b 277 633 292 583 277 597 l 277 802 m 43 270 b 340 -11 43 54 136 -11 b 637 270 544 -11 637 54 b 491 519 637 397 627 490 l 491 520 b 620 740 597 550 620 600 b 340 1016 620 926 593 1016 b 59 740 87 1016 59 926 b 189 522 59 600 83 551 l 189 520 b 43 270 53 490 43 397 "},"ž":{"x_min":-0.234375,"x_max":481.59375,"ha":490,"o":"m 33 0 l 446 0 l 446 147 l 248 147 l 436 537 l 436 708 l 46 708 l 46 561 l 229 561 l 33 154 l 33 0 m 156 800 l 325 800 l 481 1005 l 327 1005 l 240 891 l 153 1005 l 0 1005 l 156 800 "},"R":{"x_min":74.859375,"x_max":664.21875,"ha":747,"o":"m 300 833 l 368 833 b 438 758 417 833 438 809 l 438 606 b 344 519 438 541 424 519 l 300 519 l 300 833 m 74 0 l 300 0 l 300 347 l 338 347 b 438 287 415 347 438 329 l 438 0 l 664 0 l 664 273 b 510 437 664 397 611 415 l 510 440 b 664 644 605 456 664 491 l 664 765 b 353 1005 664 954 596 1005 l 74 1005 l 74 0 "},"á":{"x_min":31.296875,"x_max":540.03125,"ha":617,"o":"m 61 504 l 238 504 l 238 543 b 287 579 238 569 257 579 b 338 544 321 579 338 568 l 338 389 b 205 434 300 420 254 434 b 31 218 95 434 31 391 b 198 -10 31 72 59 -10 b 344 59 274 -10 300 0 l 346 59 l 346 0 l 540 0 l 540 518 b 283 718 540 691 462 718 b 61 593 129 718 61 697 l 61 504 m 240 244 b 289 304 240 291 257 304 b 338 252 329 304 338 289 l 338 195 b 289 144 338 168 331 144 b 240 204 253 144 242 158 l 240 244 m 190 798 l 325 798 l 526 1004 l 315 1004 l 190 798 "},"×":{"x_min":88,"x_max":728,"ha":833,"o":"m 303 351 l 88 131 l 192 25 l 408 245 l 623 25 l 728 131 l 511 351 l 728 570 l 623 677 l 408 458 l 192 677 l 88 570 l 303 351 "},"o":{"x_min":50.359375,"x_max":581.1875,"ha":644,"o":"m 50 213 b 315 -11 50 23 142 -11 b 581 213 488 -11 581 23 l 581 494 b 315 719 581 684 488 719 b 50 494 142 719 50 684 l 50 213 m 259 512 b 315 563 259 555 276 563 b 371 512 355 563 371 555 l 371 195 b 315 144 371 152 355 144 b 259 195 276 144 259 152 l 259 512 "},"5":{"x_min":69.421875,"x_max":611.140625,"ha":694,"o":"m 69 209 b 337 -11 69 19 157 -11 b 611 208 485 -11 611 11 l 611 515 b 424 708 611 687 521 708 b 289 641 368 708 313 688 l 287 641 l 287 833 l 568 833 l 568 1005 l 85 1005 l 85 461 l 270 461 l 270 502 b 329 544 270 534 285 544 b 385 502 370 544 385 534 l 385 193 b 333 152 385 159 362 152 b 279 193 302 152 279 159 l 279 305 l 69 305 l 69 209 "},"õ":{"x_min":51.140625,"x_max":581.96875,"ha":644,"o":"m 51 213 b 316 -11 51 23 143 -11 b 581 213 489 -11 581 23 l 581 494 b 316 719 581 684 489 719 b 51 494 143 719 51 684 l 51 213 m 260 512 b 316 563 260 555 277 563 b 372 512 356 563 372 555 l 372 195 b 316 144 372 152 356 144 b 260 195 277 144 260 152 l 260 512 m 154 825 b 214 881 158 859 181 881 b 418 833 277 881 331 833 b 565 1005 497 833 552 901 l 477 1005 b 413 945 471 969 444 945 b 226 998 373 945 300 998 b 67 825 132 998 87 930 l 154 825 "},"7":{"x_min":69.015625,"x_max":569.953125,"ha":694,"o":"m 69 833 l 346 833 l 130 0 l 358 0 l 569 834 l 569 1005 l 69 1005 l 69 833 "},"K":{"x_min":75.0625,"x_max":713.421875,"ha":722,"o":"m 75 0 l 301 0 l 301 445 l 299 448 l 302 448 l 471 0 l 713 0 l 497 527 l 688 1005 l 446 1005 l 302 579 l 299 579 l 301 581 l 301 1005 l 75 1005 l 75 0 "},",":{"x_min":69.421875,"x_max":270.859375,"ha":347,"o":"m 76 -219 b 270 -25 176 -219 270 -169 l 270 213 l 69 213 l 69 0 l 155 0 b 156 -26 155 -9 156 -18 b 76 -113 156 -83 132 -105 l 76 -219 "},"d":{"x_min":63.96875,"x_max":567.578125,"ha":644,"o":"m 63 181 b 225 -11 63 37 103 -11 b 372 73 298 -11 333 0 l 375 73 l 375 0 l 567 0 l 567 1005 l 366 1005 l 366 645 l 363 645 b 215 719 330 693 287 719 b 63 576 129 719 63 686 l 63 181 m 273 516 b 319 555 273 543 289 555 b 366 516 349 555 366 543 l 366 191 b 319 152 366 165 349 152 b 273 191 289 152 273 165 l 273 516 "},"¨":{"x_min":-58.53125,"x_max":387.921875,"ha":336,"o":"m -58 841 l 118 841 l 118 1005 l -58 1005 l -58 841 m 210 841 l 387 841 l 387 1005 l 210 1005 l 210 841 "},"Ô":{"x_min":60.984375,"x_max":646.015625,"ha":722,"o":"m 412 209 b 353 161 412 171 395 161 b 295 209 311 161 295 171 l 295 797 b 353 845 295 835 311 845 b 412 797 395 845 412 835 l 412 209 m 60 196 b 353 -10 60 32 164 -10 b 646 196 542 -10 646 32 l 646 810 b 353 1017 646 974 542 1017 b 60 810 164 1017 60 974 l 60 196 m 112 1056 l 266 1056 l 353 1170 l 440 1056 l 594 1056 l 437 1261 l 269 1261 l 112 1056 "},"E":{"x_min":74.859375,"x_max":525.390625,"ha":592,"o":"m 74 0 l 525 0 l 525 180 l 300 180 l 300 431 l 494 431 l 494 604 l 300 604 l 300 825 l 509 825 l 509 1005 l 74 1005 l 74 0 "},"Y":{"x_min":0,"x_max":631.5625,"ha":644,"o":"m 206 0 l 424 0 l 424 325 l 631 1005 l 408 1005 l 317 552 l 314 552 l 223 1005 l 0 1005 l 206 325 l 206 0 "},"\"":{"x_min":93.921875,"x_max":460.0625,"ha":565,"o":"m 307 572 l 460 572 l 460 1005 l 307 1005 l 307 572 m 93 572 l 246 572 l 246 1005 l 93 1005 l 93 572 "},"‹":{"x_min":62.984375,"x_max":391,"ha":463,"o":"m 182 122 l 391 122 l 271 368 l 391 613 l 182 613 l 62 368 l 182 122 "},"˙":{"x_min":76.21875,"x_max":253.171875,"ha":336,"o":"m 76 841 l 253 841 l 253 1005 l 76 1005 l 76 841 "},"ê":{"x_min":50.046875,"x_max":581.953125,"ha":644,"o":"m 50 212 b 316 -12 50 22 142 -12 b 581 177 520 -12 581 29 l 581 218 l 377 218 l 377 184 b 320 134 377 143 359 134 b 260 183 268 134 260 145 l 260 302 l 581 302 l 581 522 b 316 718 581 633 536 718 b 50 493 142 718 50 683 l 50 212 m 260 537 b 316 579 260 566 269 579 b 371 537 362 579 371 566 l 371 433 l 260 433 l 260 537 m 74 799 l 228 799 l 316 914 l 403 799 l 557 799 l 400 1005 l 231 1005 l 74 799 "},"Ï":{"x_min":-21.78125,"x_max":424.671875,"ha":411,"o":"m 88 0 l 314 0 l 314 1005 l 88 1005 l 88 0 m -21 1062 l 155 1062 l 155 1226 l -21 1226 l -21 1062 m 247 1062 l 424 1062 l 424 1226 l 247 1226 l 247 1062 "},"„":{"x_min":44.921875,"x_max":509.0625,"ha":565,"o":"m 307 0 l 393 0 b 394 -26 394 -9 394 -18 b 314 -113 394 -83 370 -105 l 314 -219 b 509 -25 415 -219 509 -169 l 509 213 l 307 213 l 307 0 m 44 0 l 130 0 b 132 -26 132 -9 132 -18 b 51 -113 132 -83 107 -105 l 51 -219 b 246 -25 152 -219 246 -169 l 246 213 l 44 213 l 44 0 "},"Â":{"x_min":22,"x_max":686,"ha":722,"o":"m 408 414 l 299 414 l 352 867 l 355 867 l 408 414 m 22 0 l 251 0 l 280 242 l 427 242 l 456 0 l 686 0 l 537 1006 l 170 1006 l 22 0 m 113 1056 l 266 1056 l 354 1170 l 441 1056 l 594 1056 l 438 1261 l 269 1261 l 113 1056 "},"Í":{"x_min":88,"x_max":425.546875,"ha":411,"o":"m 88 0 l 313 0 l 313 1005 l 88 1005 l 88 0 m 89 1055 l 224 1055 l 425 1261 l 214 1261 l 89 1055 "},"´":{"x_min":53,"x_max":389,"ha":336,"o":"m 53 800 l 187 800 l 389 1005 l 178 1005 l 53 800 "},"ì":{"x_min":-59.890625,"x_max":276.3125,"ha":336,"o":"m 63 0 l 265 0 l 265 708 l 63 708 l 63 0 m 141 800 l 276 800 l 151 1005 l -59 1005 l 141 800 "},"±":{"x_min":63.96875,"x_max":752.703125,"ha":833,"o":"m 63 373 l 332 373 l 332 200 l 484 200 l 484 373 l 752 373 l 752 529 l 484 529 l 484 702 l 332 702 l 332 529 l 63 529 l 63 373 m 63 0 l 752 0 l 752 155 l 63 155 l 63 0 "},"Ú":{"x_min":68.046875,"x_max":639.984375,"ha":722,"o":"m 639 1005 l 413 1005 l 413 233 b 353 169 413 194 398 169 b 294 233 309 169 294 194 l 294 1005 l 68 1005 l 68 240 b 353 -11 68 16 172 -11 b 639 240 535 -11 639 16 l 639 1005 m 242 1055 l 377 1055 l 578 1261 l 367 1261 l 242 1055 "},"|":{"x_min":74.859375,"x_max":227.3125,"ha":308,"o":"m 74 1041 l 74 -347 l 227 -347 l 227 1041 l 74 1041 "},"§":{"x_min":67.921875,"x_max":664.921875,"ha":747,"o":"m 88 148 b 356 -11 89 43 153 -11 b 630 179 572 -11 630 48 b 571 337 630 243 611 295 b 664 497 634 363 664 427 b 467 725 664 643 588 687 b 320 813 336 763 320 775 b 381 869 320 856 337 869 b 435 813 420 869 435 862 l 435 805 l 629 805 b 362 1016 629 968 576 1016 b 110 815 166 1016 110 927 b 170 659 110 768 122 700 b 67 488 103 620 67 576 b 260 284 67 372 153 322 b 420 181 395 237 420 225 b 348 136 420 140 400 136 b 281 191 291 136 281 148 l 281 206 l 88 206 l 88 148 m 236 547 b 262 594 236 565 245 583 b 495 456 315 556 495 537 b 471 411 495 437 486 416 b 236 547 404 468 236 479 "},"Ý":{"x_min":0,"x_max":631.5625,"ha":644,"o":"m 206 0 l 424 0 l 424 325 l 631 1005 l 408 1005 l 317 552 l 314 552 l 223 1005 l 0 1005 l 206 325 l 206 0 m 204 1055 l 338 1055 l 540 1261 l 329 1261 l 204 1055 "},"b":{"x_min":63.96875,"x_max":567.578125,"ha":644,"o":"m 265 516 b 311 555 265 543 281 555 b 357 516 341 555 357 543 l 357 191 b 311 152 357 165 341 152 b 265 191 281 152 265 165 l 265 516 m 63 0 l 255 0 l 255 73 l 258 73 b 402 -11 298 0 333 -11 b 567 181 528 -11 567 37 l 567 576 b 416 719 567 686 502 719 b 268 645 344 719 300 693 l 265 645 l 265 1005 l 63 1005 l 63 0 "},"q":{"x_min":63.96875,"x_max":567.578125,"ha":644,"o":"m 273 516 b 319 555 273 543 289 555 b 366 516 349 555 366 543 l 366 191 b 319 152 366 165 349 152 b 273 191 289 152 273 165 l 273 516 m 63 131 b 215 -11 63 22 129 -11 b 363 62 287 -11 330 15 l 366 62 l 366 -261 l 567 -261 l 567 708 l 375 708 l 375 634 l 372 634 b 225 719 333 708 298 719 b 63 526 103 719 63 670 l 63 131 "},"Ω":{"x_min":36.75,"x_max":801.703125,"ha":858,"o":"m 191 163 l 36 163 l 36 0 l 366 0 l 366 118 b 246 513 304 163 246 304 b 421 834 246 701 311 834 b 590 522 536 834 590 694 b 472 118 590 291 530 165 l 472 0 l 801 0 l 801 163 l 643 163 l 643 168 b 782 569 713 250 782 398 b 424 1005 782 756 671 1005 b 54 555 198 1005 54 793 b 191 168 54 386 123 251 l 191 163 "},"Ö":{"x_min":61.25,"x_max":646.53125,"ha":722,"o":"m 412 208 b 353 161 412 170 396 161 b 295 208 311 161 295 170 l 295 797 b 353 844 295 834 311 844 b 412 797 396 844 412 834 l 412 208 m 61 195 b 353 -11 61 31 164 -11 b 646 195 543 -11 646 31 l 646 809 b 353 1016 646 973 543 1016 b 61 809 164 1016 61 973 l 61 195 m 130 1062 l 307 1062 l 307 1226 l 130 1226 l 130 1062 m 400 1062 l 577 1062 l 577 1226 l 400 1226 l 400 1062 "},"ﬂ":{"x_min":13.609375,"x_max":666.953125,"ha":746,"o":"m 465 0 l 666 0 l 666 1005 l 465 1005 l 465 0 m 13 552 l 70 552 l 70 0 l 272 0 l 272 552 l 368 552 l 368 708 l 272 708 l 272 815 b 343 869 272 854 299 869 l 352 869 b 371 866 359 869 364 868 l 371 1011 b 262 1016 336 1016 299 1016 b 70 850 157 1016 70 952 l 70 708 l 13 708 l 13 552 "},"z":{"x_min":33.78125,"x_max":446.203125,"ha":490,"o":"m 33 0 l 446 0 l 446 147 l 248 147 l 436 537 l 436 708 l 46 708 l 46 561 l 229 561 l 33 154 l 33 0 "},"™":{"x_min":59.890625,"x_max":1274,"ha":1389,"o":"m 1129 433 l 1274 433 l 1274 1005 l 1065 1005 l 937 655 l 809 1005 l 601 1005 l 601 433 l 745 433 l 745 825 l 748 825 l 882 433 l 993 433 l 1127 825 l 1129 825 l 1129 433 m 215 433 l 367 433 l 367 883 l 522 883 l 522 1005 l 59 1005 l 59 883 l 215 883 l 215 433 "},"ã":{"x_min":31.3125,"x_max":551.25,"ha":617,"o":"m 61 504 l 238 504 l 238 543 b 287 579 238 569 257 579 b 338 544 321 579 338 568 l 338 389 b 205 434 300 420 254 434 b 31 218 95 434 31 391 b 198 -10 31 72 59 -10 b 344 59 274 -10 300 0 l 347 59 l 347 0 l 540 0 l 540 518 b 283 718 540 691 462 718 b 61 593 129 718 61 697 l 61 504 m 240 244 b 289 304 240 291 257 304 b 338 252 329 304 338 289 l 338 195 b 289 144 338 168 332 144 b 240 204 253 144 242 158 l 240 244 m 140 823 b 200 880 144 858 167 880 b 404 831 262 880 317 831 b 551 1004 483 831 537 900 l 462 1004 b 398 944 457 968 430 944 b 212 997 359 944 285 997 b 53 823 118 997 73 929 l 140 823 "},"æ":{"x_min":31.3125,"x_max":857.5,"ha":926,"o":"m 61 504 l 238 504 l 238 543 b 287 579 238 569 257 579 b 338 544 321 579 338 568 l 338 389 b 205 434 300 420 254 434 b 31 218 95 434 31 391 b 239 -10 31 72 59 -10 b 405 66 343 -10 385 7 l 408 66 b 592 -10 428 1 485 -10 b 857 179 796 -10 857 30 l 857 219 l 653 219 l 653 186 b 598 136 653 144 635 136 b 540 184 548 136 540 147 l 540 304 l 857 304 l 857 523 b 592 719 857 635 812 719 b 447 667 543 719 477 704 b 283 719 431 704 379 719 b 61 593 129 719 61 698 l 61 504 m 240 244 b 289 304 240 291 257 304 b 338 252 329 304 338 289 l 338 195 b 289 144 338 168 332 144 b 240 204 253 144 242 158 l 240 244 m 540 529 b 593 570 540 558 549 570 b 647 529 638 570 647 558 l 647 434 l 540 434 l 540 529 "},"®":{"x_min":41.140625,"x_max":1048.375,"ha":1111,"o":"m 41 502 b 544 -11 41 219 267 -11 b 1048 502 822 -11 1048 219 b 544 1016 1048 786 822 1016 b 41 502 267 1016 41 786 m 193 502 b 544 877 193 719 332 877 b 895 502 757 877 895 719 b 544 127 895 286 757 127 b 193 502 332 127 193 286 m 344 222 l 464 222 l 464 456 l 509 456 l 629 222 l 757 222 l 627 463 b 767 613 709 470 767 509 b 547 783 767 743 686 783 l 344 783 l 344 222 m 464 691 l 542 691 b 648 625 585 691 648 687 b 562 548 648 559 612 548 l 464 548 l 464 691 "},"É":{"x_min":75.03125,"x_max":525.546875,"ha":592,"o":"m 75 0 l 525 0 l 525 180 l 300 180 l 300 431 l 494 431 l 494 604 l 300 604 l 300 825 l 509 825 l 509 1005 l 75 1005 l 75 0 m 178 1055 l 313 1055 l 514 1261 l 303 1261 l 178 1055 "},"~":{"x_min":94.171875,"x_max":723,"ha":833,"o":"m 143 222 b 257 319 164 269 197 319 b 414 272 320 319 370 297 b 552 227 458 247 502 227 b 723 345 637 227 682 287 l 674 480 b 554 381 642 431 608 381 b 415 430 517 381 465 408 b 264 475 363 454 310 475 b 94 355 173 475 124 413 l 143 222 "},"³":{"x_min":19.0625,"x_max":413.78125,"ha":451,"o":"m 132 658 l 194 658 b 253 588 247 658 253 655 b 210 509 253 523 249 509 b 171 550 175 509 171 523 l 171 598 l 19 598 l 19 518 b 202 395 19 437 42 395 b 413 563 385 395 413 440 b 321 719 413 668 405 708 l 321 725 b 405 879 393 737 405 759 b 206 1016 405 977 377 1016 b 21 900 74 1016 21 983 l 21 836 l 174 836 l 174 873 b 209 902 174 898 185 902 b 245 856 238 902 245 898 b 171 772 245 780 239 772 l 132 772 l 132 658 "},"¡":{"x_min":88.46875,"x_max":289.921875,"ha":386,"o":"m 88 -250 l 289 -250 l 289 447 l 88 447 l 88 -250 m 88 541 l 289 541 l 289 755 l 88 755 l 88 541 "},"[":{"x_min":77.578125,"x_max":375.671875,"ha":463,"o":"m 77 0 l 375 0 l 375 163 l 287 163 l 287 841 l 375 841 l 375 1005 l 77 1005 l 77 0 "},"L":{"x_min":74.859375,"x_max":519.9375,"ha":565,"o":"m 74 0 l 519 0 l 519 180 l 300 180 l 300 1005 l 74 1005 l 74 0 "}," ":{"x_min":0,"x_max":0,"ha":347},"∑":{"x_min":31,"x_max":668,"ha":706,"o":"m 668 -137 l 668 51 l 251 51 l 251 55 l 526 469 l 285 819 l 285 823 l 647 823 l 647 991 l 39 991 l 39 850 l 315 430 l 31 -4 l 31 -137 l 668 -137 "},"%":{"x_min":39.46875,"x_max":1144.703125,"ha":1208,"o":"m 872 426 b 932 473 872 459 884 473 b 992 426 980 473 992 459 l 992 183 b 932 136 992 150 980 136 b 872 183 884 136 872 150 l 872 426 m 720 187 b 932 -11 720 43 775 -11 b 1144 187 1088 -11 1144 43 l 1144 430 b 932 629 1144 575 1088 629 b 720 430 775 629 720 575 l 720 187 m 251 -11 l 392 -11 l 931 1015 l 790 1015 l 251 -11 m 39 575 b 251 376 39 430 95 376 b 464 575 408 376 464 430 l 464 818 b 251 1016 464 962 408 1016 b 39 818 95 1016 39 962 l 39 575 m 191 813 b 251 861 191 847 204 861 b 311 813 299 861 311 847 l 311 570 b 251 523 311 537 299 523 b 191 570 204 523 191 537 l 191 813 "},"P":{"x_min":74.859375,"x_max":651.96875,"ha":694,"o":"m 74 0 l 300 0 l 300 286 l 377 286 b 651 586 579 286 651 345 l 651 761 b 400 1005 651 944 563 1005 l 74 1005 l 74 0 m 300 466 l 300 825 l 366 825 b 417 781 405 825 417 815 l 417 540 b 367 466 417 484 400 466 l 300 466 "},"∏":{"x_min":34.03125,"x_max":877.921875,"ha":932,"o":"m 877 806 l 877 991 l 34 991 l 34 806 l 152 806 l 152 -137 l 340 -137 l 340 806 l 570 806 l 570 -137 l 759 -137 l 759 806 l 877 806 "},"À":{"x_min":22,"x_max":686,"ha":722,"o":"m 408 413 l 299 413 l 352 866 l 355 866 l 408 413 m 22 0 l 251 0 l 280 241 l 427 241 l 456 0 l 686 0 l 537 1005 l 170 1005 l 22 0 m 330 1055 l 465 1055 l 340 1261 l 129 1261 l 330 1055 "},"_":{"x_min":0,"x_max":680.5625,"ha":694,"o":"m 0 -173 l 680 -173 l 680 -104 l 0 -104 l 0 -173 "},"ñ":{"x_min":63.390625,"x_max":567,"ha":644,"o":"m 63 0 l 264 0 l 264 506 b 313 555 264 537 278 555 b 365 506 351 555 365 537 l 365 0 l 567 0 l 567 556 b 409 719 567 679 497 719 b 267 630 343 719 296 693 l 264 630 l 264 708 l 63 708 l 63 0 m 153 825 b 213 881 157 859 180 881 b 417 833 275 881 330 833 b 564 1005 496 833 550 901 l 475 1005 b 411 945 470 969 443 945 b 225 998 372 945 298 998 b 66 825 131 998 86 930 l 153 825 "},"+":{"x_min":63.96875,"x_max":752.703125,"ha":833,"o":"m 63 273 l 332 273 l 332 0 l 484 0 l 484 273 l 752 273 l 752 429 l 484 429 l 484 702 l 332 702 l 332 429 l 63 429 l 63 273 "},"‚":{"x_min":50.359375,"x_max":251.8125,"ha":308,"o":"m 57 -219 b 251 -25 157 -219 251 -169 l 251 213 l 50 213 l 50 0 l 136 0 b 137 -26 136 -9 137 -18 b 57 -113 137 -83 112 -105 l 57 -219 "},"½":{"x_min":5.65625,"x_max":1008.796875,"ha":1042,"o":"m 171 -11 l 313 -11 l 850 1016 l 709 1016 l 171 -11 m 5 838 l 92 766 l 174 891 l 177 891 l 177 406 l 345 406 l 345 1005 l 141 1005 l 5 838 m 623 0 l 1006 0 l 1006 113 l 776 113 l 776 122 b 871 219 776 173 799 191 b 1008 416 993 266 1008 280 b 822 609 1008 565 1006 609 b 630 477 691 609 630 590 l 630 380 l 782 380 l 782 469 b 812 495 782 487 792 495 b 840 437 831 495 840 490 l 840 388 b 765 302 840 333 820 326 b 623 125 653 255 623 209 l 623 0 "},"Æ":{"x_min":-12.25,"x_max":954.140625,"ha":1029,"o":"m 499 431 l 344 431 l 465 841 l 499 841 l 499 431 m -12 0 l 216 0 l 294 259 l 499 259 l 499 0 l 954 0 l 954 180 l 725 180 l 725 431 l 918 431 l 918 604 l 725 604 l 725 825 l 937 825 l 937 1005 l 298 1005 l -12 0 "},"Ë":{"x_min":66.6875,"x_max":525.390625,"ha":592,"o":"m 74 0 l 525 0 l 525 180 l 300 180 l 300 431 l 494 431 l 494 604 l 300 604 l 300 825 l 509 825 l 509 1005 l 74 1005 l 74 0 m 66 1062 l 243 1062 l 243 1226 l 66 1226 l 66 1062 m 336 1062 l 513 1062 l 513 1226 l 336 1226 l 336 1062 "},"'":{"x_min":74.859375,"x_max":227.3125,"ha":308,"o":"m 74 572 l 227 572 l 227 1005 l 74 1005 l 74 572 "},"Š":{"x_min":56.046875,"x_max":625,"ha":694,"o":"m 265 331 l 56 331 l 56 247 b 345 -10 56 47 100 -10 b 625 274 537 -10 625 32 b 356 614 625 532 597 550 b 273 706 290 631 273 642 l 273 772 b 337 845 273 820 277 845 b 401 749 394 845 401 838 l 401 700 l 603 700 l 603 821 b 341 1017 603 961 537 1017 b 56 758 126 1017 56 993 l 56 697 b 265 432 56 518 90 475 b 399 329 384 403 399 399 l 399 221 b 332 161 399 178 382 161 b 265 258 265 161 265 189 l 265 331 m 256 1056 l 424 1056 l 581 1261 l 427 1261 l 340 1147 l 253 1261 l 99 1261 l 256 1056 "},"ª":{"x_min":16.328125,"x_max":377.03125,"ha":401,"o":"m 39 886 l 167 886 l 167 902 b 198 925 167 919 179 925 b 232 904 220 925 232 918 l 232 833 b 129 859 208 851 178 859 b 16 722 58 859 16 834 b 125 569 16 619 35 569 b 235 610 190 569 208 576 l 238 613 l 238 577 l 377 577 l 377 895 b 197 1016 377 1000 326 1016 b 39 941 84 1016 39 1004 l 39 886 m 168 731 b 200 768 168 761 179 768 b 232 737 225 768 232 758 l 232 706 b 200 674 232 690 228 674 b 168 711 176 674 170 683 l 168 731 "},"Œ":{"x_min":68.0625,"x_max":877.921875,"ha":951,"o":"m 424 208 b 357 161 424 171 408 161 b 302 208 318 161 302 171 l 302 797 b 357 844 302 835 318 844 b 424 797 408 844 424 835 l 424 208 m 468 0 l 877 0 l 877 180 l 650 180 l 650 432 l 846 432 l 846 604 l 650 604 l 650 825 l 862 825 l 862 1005 l 476 1005 l 476 957 l 473 960 b 296 1017 447 1007 400 1017 b 68 747 121 1017 68 939 l 68 193 b 304 -10 68 15 153 -10 b 465 43 382 -10 441 0 l 468 43 l 468 0 "},"˛":{"x_min":83.03125,"x_max":322.578125,"ha":336,"o":"m 315 -219 b 240 -250 294 -236 273 -250 b 172 -170 197 -250 172 -216 b 265 0 172 -109 225 -41 l 246 0 b 83 -198 181 -33 83 -105 b 190 -316 83 -275 125 -316 b 322 -241 245 -316 296 -272 l 315 -219 "},"ð":{"x_min":50.109375,"x_max":618.578125,"ha":644,"o":"m 50 214 b 315 -10 50 24 142 -10 b 581 214 489 -10 581 24 l 581 543 b 487 889 581 667 577 793 l 618 954 l 573 1025 l 425 954 b 193 1032 359 1010 275 1032 l 104 893 b 232 861 148 890 190 878 l 120 807 l 165 736 l 313 807 b 381 640 361 767 377 703 l 378 642 b 243 697 348 686 295 697 b 50 495 112 697 56 618 l 50 214 m 260 490 b 315 542 260 533 276 542 b 371 490 355 542 371 533 l 371 196 b 315 145 371 153 355 145 b 260 196 276 145 260 153 l 260 490 "},"T":{"x_min":19.0625,"x_max":560.78125,"ha":592,"o":"m 176 0 l 402 0 l 402 825 l 560 825 l 560 1005 l 19 1005 l 19 825 l 176 825 l 176 0 "},"š":{"x_min":47.078125,"x_max":533.15625,"ha":593,"o":"m 51 155 b 294 -12 51 19 115 -12 b 533 240 458 -12 537 19 b 339 444 530 395 498 419 b 248 515 256 456 248 468 b 294 579 248 563 256 579 b 339 529 326 579 339 561 l 339 495 l 516 495 l 516 577 b 283 718 516 679 459 722 b 47 481 98 714 47 689 b 222 276 47 344 81 297 b 331 198 322 261 327 258 b 283 134 335 145 320 134 b 236 198 247 134 236 145 l 236 218 l 51 218 l 51 155 m 206 799 l 375 799 l 531 1005 l 377 1005 l 290 891 l 203 1005 l 49 1005 l 206 799 "},"℮":{"x_min":47.890625,"x_max":1166.734375,"ha":1239,"o":"m 1166 488 l 1166 502 b 605 1016 1166 786 916 1016 b 47 502 296 1016 47 786 b 605 -9 47 219 296 -9 b 1048 188 785 -9 948 69 l 968 188 b 607 18 879 86 751 18 b 264 170 473 18 352 77 b 253 202 257 179 253 190 l 253 481 b 260 488 253 487 256 488 l 1166 488 m 961 525 b 954 515 961 522 958 515 l 260 515 b 253 525 256 515 253 522 l 253 800 b 265 834 253 813 257 826 b 607 986 354 926 475 986 b 947 840 740 986 859 927 b 961 805 955 830 961 818 l 961 525 "},"Þ":{"x_min":74.859375,"x_max":651.96875,"ha":694,"o":"m 74 0 l 300 0 l 300 175 l 377 175 b 651 475 579 175 651 234 l 651 650 b 400 894 651 833 563 894 l 300 894 l 300 1005 l 74 1005 l 74 0 m 300 713 l 366 713 b 417 670 405 713 417 704 l 417 429 b 367 355 417 373 400 355 l 300 355 l 300 713 "},"j":{"x_min":4.078125,"x_max":265.421875,"ha":336,"o":"m 4 -254 b 91 -261 35 -258 65 -261 b 265 -87 212 -261 265 -205 l 265 708 l 63 708 l 63 -12 b 4 -97 63 -80 46 -97 l 4 -254 m 63 841 l 265 841 l 265 1005 l 63 1005 l 63 841 "},"1":{"x_min":20.421875,"x_max":515.859375,"ha":694,"o":"m 20 727 l 141 606 l 287 833 l 289 833 l 289 0 l 515 0 l 515 1005 l 230 1005 l 20 727 "},"›":{"x_min":63,"x_max":391,"ha":463,"o":"m 63 122 l 271 122 l 391 368 l 271 613 l 63 613 l 182 368 l 63 122 "},"ı":{"x_min":63.96875,"x_max":265.421875,"ha":336,"o":"m 63 0 l 265 0 l 265 708 l 63 708 l 63 0 "},"ℓ":{"x_min":23.140625,"x_max":627.46875,"ha":657,"o":"m 555 269 b 409 150 519 209 469 150 b 311 286 351 150 313 198 l 310 365 b 543 838 453 523 543 681 b 366 1095 543 984 488 1095 b 127 741 235 1095 127 979 l 127 384 b 23 286 96 350 62 322 l 66 181 b 129 236 87 198 110 219 l 129 219 b 366 -6 138 101 200 -6 b 627 190 462 -6 559 40 l 555 269 m 310 722 b 377 952 310 905 344 952 b 434 852 420 952 434 918 b 310 548 434 768 385 651 l 310 722 "},"ä":{"x_min":31.3125,"x_max":540.359375,"ha":617,"o":"m 61 504 l 238 504 l 238 543 b 287 579 238 569 257 579 b 338 544 321 579 338 568 l 338 389 b 205 434 300 420 254 434 b 31 218 95 434 31 391 b 198 -10 31 72 59 -10 b 344 59 274 -10 300 0 l 347 59 l 347 0 l 540 0 l 540 518 b 283 718 540 691 462 718 b 61 593 129 718 61 697 l 61 504 m 240 244 b 289 304 240 291 257 304 b 338 252 329 304 338 289 l 338 195 b 289 144 338 168 332 144 b 240 204 253 144 242 158 l 240 244 m 78 805 l 255 805 l 255 969 l 78 969 l 78 805 m 348 805 l 525 805 l 525 969 l 348 969 l 348 805 "},"<":{"x_min":64.078125,"x_max":752.796875,"ha":833,"o":"m 64 289 l 752 -11 l 752 139 l 260 351 l 752 564 l 752 714 l 64 414 l 64 289 "},"£":{"x_min":47.578125,"x_max":642.375,"ha":694,"o":"m 47 365 l 141 365 b 144 286 144 337 144 312 b 47 172 144 202 130 176 l 47 0 l 642 0 l 642 180 l 347 180 b 361 365 361 255 361 316 l 522 365 l 522 529 l 357 529 b 334 802 348 640 333 745 b 390 852 334 840 353 852 b 438 798 423 852 438 844 l 438 719 l 639 719 l 639 804 b 364 1016 639 977 540 1016 b 125 794 142 1016 125 902 b 137 529 125 711 133 622 l 47 529 l 47 365 "},"¹":{"x_min":5.4375,"x_max":345.71875,"ha":451,"o":"m 5 838 l 92 766 l 174 891 l 176 891 l 176 406 l 345 406 l 345 1005 l 141 1005 l 5 838 "},"t":{"x_min":31.3125,"x_max":406.96875,"ha":438,"o":"m 31 552 l 88 552 l 88 144 b 265 -11 88 36 142 -11 b 393 -5 307 -11 355 -6 l 393 148 b 341 144 377 147 359 144 b 289 198 298 144 289 162 l 289 552 l 406 552 l 406 708 l 289 708 l 289 893 l 88 893 l 88 708 l 31 708 l 31 552 "},"¬":{"x_min":63.96875,"x_max":752.703125,"ha":833,"o":"m 63 429 l 600 429 l 600 152 l 752 152 l 752 584 l 63 584 l 63 429 "},"ù":{"x_min":63.6875,"x_max":567.296875,"ha":644,"o":"m 63 151 b 221 -11 63 29 133 -11 b 363 77 286 -11 334 15 l 365 77 l 365 0 l 567 0 l 567 708 l 365 708 l 365 201 b 316 152 365 170 352 152 b 265 201 278 152 265 170 l 265 708 l 63 708 l 63 151 m 292 800 l 427 800 l 301 1005 l 90 1005 l 292 800 "},"W":{"x_min":17.9375,"x_max":1066,"ha":1106,"o":"m 128 0 l 446 0 l 540 833 l 543 833 l 637 0 l 955 0 l 1066 1005 l 848 1005 l 786 147 l 784 147 l 694 1005 l 389 1005 l 299 147 l 296 147 l 235 1005 l 17 1005 l 128 0 "},"ï":{"x_min":-58.53125,"x_max":387.921875,"ha":336,"o":"m 63 0 l 265 0 l 265 708 l 63 708 l 63 0 m -58 806 l 118 806 l 118 970 l -58 970 l -58 806 m 210 806 l 387 806 l 387 970 l 210 970 l 210 806 "},">":{"x_min":63.96875,"x_max":752.703125,"ha":833,"o":"m 63 -11 l 752 289 l 752 414 l 63 714 l 63 564 l 556 351 l 63 139 l 63 -11 "},"v":{"x_min":13.890625,"x_max":542,"ha":567,"o":"m 115 0 l 439 0 l 542 708 l 340 708 l 279 122 l 276 122 l 215 708 l 13 708 l 115 0 "},"û":{"x_min":63.96875,"x_max":567.03125,"ha":644,"o":"m 63 151 b 221 -11 63 29 133 -11 b 363 77 286 -11 334 15 l 365 77 l 365 0 l 567 0 l 567 708 l 365 708 l 365 201 b 316 152 365 170 352 152 b 265 201 278 152 265 170 l 265 708 l 63 708 l 63 151 m 74 800 l 228 800 l 315 914 l 402 800 l 556 800 l 399 1005 l 231 1005 l 74 800 "},"Ò":{"x_min":60.8125,"x_max":646.09375,"ha":722,"o":"m 411 208 b 353 161 411 170 395 161 b 294 208 311 161 294 170 l 294 797 b 353 844 294 834 311 844 b 411 797 395 844 411 834 l 411 208 m 60 195 b 353 -11 60 31 164 -11 b 646 195 542 -11 646 31 l 646 809 b 353 1016 646 973 542 1016 b 60 809 164 1016 60 973 l 60 195 m 330 1055 l 465 1055 l 339 1261 l 128 1261 l 330 1055 "},"&":{"x_min":49.140625,"x_max":758.28125,"ha":772,"o":"m 250 357 b 288 422 250 414 279 422 b 302 418 296 422 300 420 l 434 227 b 438 207 438 222 438 216 b 344 152 438 166 428 152 b 250 236 261 152 250 164 l 250 357 m 49 190 b 287 -11 49 54 110 -11 l 386 -11 b 570 41 494 -11 528 2 b 608 -11 579 20 592 2 l 758 100 l 641 270 l 641 619 l 464 619 l 464 523 l 461 523 l 310 752 b 298 801 305 761 298 782 b 347 852 298 836 307 852 b 409 794 393 852 409 841 l 409 736 l 603 736 l 603 808 b 349 1016 603 966 555 1016 b 96 808 144 1016 96 966 b 198 572 96 727 124 673 b 49 389 87 559 49 482 l 49 190 "},"˝":{"x_min":-83,"x_max":525,"ha":336,"o":"m -83 800 l 51 800 l 252 1005 l 42 1005 l -83 800 m 189 800 l 323 800 l 525 1005 l 314 1005 l 189 800 "},"Ð":{"x_min":10.890625,"x_max":646.53125,"ha":722,"o":"m 10 431 l 74 431 l 74 0 l 368 0 b 646 376 579 0 646 45 l 646 627 b 368 1005 646 958 579 1005 l 74 1005 l 74 612 l 10 612 l 10 431 m 300 833 l 360 833 b 420 736 409 833 420 811 l 420 277 b 360 180 420 202 409 180 l 300 180 l 300 431 l 364 431 l 364 612 l 300 612 l 300 833 "},"I":{"x_min":88.46875,"x_max":314.421875,"ha":411,"o":"m 88 0 l 314 0 l 314 1005 l 88 1005 l 88 0 "},"ˉ":{"x_min":-61.25,"x_max":390.640625,"ha":336,"o":"m -61 900 l 390 900 l 390 1005 l -61 1005 l -61 900 "},"G":{"x_min":61.25,"x_max":646.53125,"ha":722,"o":"m 61 195 b 353 -11 61 31 164 -11 b 646 218 570 -11 646 23 l 646 541 l 359 541 l 359 352 l 428 352 l 428 194 b 356 161 428 173 412 161 b 295 198 311 161 295 173 l 295 781 b 355 844 295 831 311 844 b 428 786 412 844 428 831 l 428 680 l 646 680 l 646 779 b 353 1016 646 986 532 1016 b 61 809 164 1016 61 973 l 61 195 "},"`":{"x_min":-60.1875,"x_max":276,"ha":336,"o":"m 141 800 l 276 800 l 150 1005 l -60 1005 l 141 800 "},"·":{"x_min":49,"x_max":291.28125,"ha":347,"o":"m 49 398 b 170 275 49 330 103 275 b 291 398 236 275 291 330 b 170 522 291 466 236 522 b 49 398 103 522 49 466 "},"r":{"x_min":63.96875,"x_max":515.859375,"ha":540,"o":"m 63 0 l 265 0 l 265 518 b 306 555 265 547 283 555 b 347 527 328 555 347 550 l 347 422 l 515 422 l 515 613 b 397 719 514 701 469 719 b 259 637 319 719 287 702 l 257 637 l 257 708 l 63 708 l 63 0 "},"¿":{"x_min":25.859375,"x_max":570.3125,"ha":592,"o":"m 212 376 b 129 275 212 333 208 323 b 25 26 50 226 25 200 b 323 -261 25 -222 69 -261 b 570 -29 503 -261 570 -220 l 570 55 l 360 55 l 360 -48 b 302 -97 360 -81 347 -97 b 243 2 251 -97 243 -87 b 315 169 243 115 249 125 b 421 337 402 226 421 248 l 421 448 l 212 448 l 212 376 m 212 541 l 421 541 l 421 755 l 212 755 l 212 541 "},"ý":{"x_min":13.96875,"x_max":542,"ha":567,"o":"m 110 0 l 246 0 b 227 -90 239 -31 242 -72 b 167 -113 209 -111 185 -113 b 111 -102 144 -113 128 -106 l 111 -241 b 201 -261 141 -256 184 -261 b 426 -83 320 -261 404 -234 l 542 708 l 340 708 l 279 122 l 276 122 l 215 708 l 13 708 l 110 0 m 166 800 l 301 800 l 502 1005 l 291 1005 l 166 800 "},"x":{"x_min":33,"x_max":572,"ha":617,"o":"m 33 0 l 235 0 l 301 309 l 303 309 l 369 0 l 572 0 l 468 383 l 555 708 l 358 708 l 303 416 l 301 416 l 246 708 l 49 708 l 131 383 l 33 0 "},"è":{"x_min":50.875,"x_max":581.71875,"ha":644,"o":"m 50 212 b 316 -12 50 22 143 -12 b 581 177 520 -12 581 29 l 581 218 l 377 218 l 377 184 b 320 134 377 143 359 134 b 260 183 268 134 260 145 l 260 302 l 581 302 l 581 522 b 316 718 581 633 536 718 b 50 493 143 718 50 683 l 50 212 m 260 537 b 316 579 260 566 270 579 b 372 537 362 579 372 566 l 372 433 l 260 433 l 260 537 m 293 798 l 427 798 l 302 1004 l 91 1004 l 293 798 "},"º":{"x_min":21.78125,"x_max":389.28125,"ha":419,"o":"m 21 704 b 205 569 21 590 81 569 b 389 704 328 569 389 590 l 389 881 b 205 1016 389 995 328 1016 b 21 881 81 1016 21 995 l 21 704 m 174 879 b 205 911 174 905 183 911 b 236 879 227 911 236 905 l 236 706 b 205 675 236 680 227 675 b 174 706 183 675 174 680 l 174 879 "},"Ø":{"x_min":6.546875,"x_max":700.453125,"ha":722,"o":"m 61 195 b 77 104 61 159 66 129 l 6 -34 l 108 -91 l 164 18 b 353 -11 209 -2 274 -11 b 646 195 542 -11 646 31 l 646 809 b 628 906 646 848 640 881 l 700 1043 l 594 1096 l 538 989 b 353 1016 493 1009 431 1016 b 61 809 164 1016 61 973 l 61 195 m 295 283 l 409 508 l 412 508 l 412 208 b 353 161 412 170 395 161 b 295 208 311 161 295 170 l 295 283 m 295 796 b 353 843 295 834 311 843 b 412 796 395 843 412 834 l 412 727 l 297 502 l 295 502 l 295 796 "},"∞":{"x_min":61.25,"x_max":958.21875,"ha":1040,"o":"m 958 408 b 749 637 958 548 864 637 b 514 494 630 638 564 552 b 283 637 447 586 379 637 b 61 400 156 637 61 541 b 272 166 61 258 161 166 b 513 315 377 166 445 226 b 743 166 597 193 668 166 b 958 406 852 166 958 254 l 958 408 m 284 272 b 166 398 219 272 166 329 b 281 534 166 477 208 534 b 455 394 362 534 402 470 b 287 272 405 330 356 272 l 284 272 m 739 534 b 853 400 809 534 853 475 b 745 272 853 344 813 272 b 567 405 679 272 642 304 b 737 534 607 454 661 534 l 739 534 "},"μ":{"x_min":63.96875,"x_max":567.578125,"ha":644,"o":"m 63 -261 l 265 -261 l 265 25 l 268 25 b 300 0 272 8 284 0 b 363 77 319 0 347 8 l 366 77 l 366 0 l 567 0 l 567 708 l 366 708 l 366 201 b 317 152 366 170 352 152 b 265 201 279 152 265 170 l 265 708 l 63 708 l 63 -261 "},"÷":{"x_min":63.96875,"x_max":752.703125,"ha":833,"o":"m 63 273 l 752 273 l 752 429 l 63 429 l 63 273 m 288 638 b 409 515 288 570 343 515 b 530 638 476 515 530 570 b 409 762 530 706 476 762 b 288 638 343 762 288 706 m 288 63 b 409 -59 288 -4 343 -59 b 530 63 476 -59 530 -4 b 409 187 530 131 476 187 b 288 63 343 187 288 131 "},"h":{"x_min":63.96875,"x_max":567.578125,"ha":644,"o":"m 63 0 l 265 0 l 265 506 b 314 555 265 537 279 555 b 366 506 352 555 366 537 l 366 0 l 567 0 l 567 556 b 409 719 567 679 498 719 b 268 630 344 719 296 693 l 265 630 l 265 1005 l 63 1005 l 63 0 "},".":{"x_min":69.421875,"x_max":270.859375,"ha":347,"o":"m 69 0 l 270 0 l 270 213 l 69 213 l 69 0 "},";":{"x_min":69.421875,"x_max":270.859375,"ha":347,"o":"m 76 -219 b 270 -25 176 -219 270 -169 l 270 213 l 69 213 l 69 0 l 155 0 b 156 -26 155 -9 156 -18 b 76 -113 156 -83 132 -105 l 76 -219 m 69 494 l 270 494 l 270 708 l 69 708 l 69 494 "},"f":{"x_min":13.609375,"x_max":371.578125,"ha":386,"o":"m 13 552 l 70 552 l 70 0 l 272 0 l 272 552 l 368 552 l 368 708 l 272 708 l 272 815 b 343 869 272 854 299 869 l 352 869 b 371 866 359 869 364 868 l 371 1011 b 262 1016 336 1016 299 1016 b 70 850 157 1016 70 952 l 70 708 l 13 708 l 13 552 "},"“":{"x_min":44.921875,"x_max":509.0625,"ha":565,"o":"m 307 572 l 509 572 l 509 786 l 423 786 b 421 812 421 795 421 804 b 502 900 421 869 446 891 l 502 1005 b 307 811 401 1005 307 955 l 307 572 m 44 572 l 246 572 l 246 786 l 160 786 b 159 812 159 795 159 804 b 239 900 159 869 183 891 l 239 1005 b 44 811 138 1005 44 955 l 44 572 "},"A":{"x_min":22,"x_max":686,"ha":722,"o":"m 408 413 l 299 413 l 352 866 l 355 866 l 408 413 m 22 0 l 251 0 l 280 241 l 427 241 l 456 0 l 686 0 l 537 1005 l 170 1005 l 22 0 "},"6":{"x_min":59.890625,"x_max":620.6875,"ha":694,"o":"m 285 423 b 343 479 285 463 296 479 b 402 423 392 479 402 463 l 402 208 b 343 152 402 168 392 152 b 285 208 296 152 285 168 l 285 423 m 59 194 b 340 -11 59 51 93 -11 b 620 206 556 -11 620 29 l 620 459 b 427 634 622 606 540 634 b 288 568 362 634 329 620 l 285 568 l 285 802 b 341 852 285 840 299 852 b 398 802 385 852 398 840 l 398 737 l 600 737 l 600 856 b 330 1016 600 970 548 1016 b 59 809 132 1016 59 966 l 59 194 "},"‘":{"x_min":50.359375,"x_max":251.8125,"ha":308,"o":"m 50 572 l 251 572 l 251 786 l 166 786 b 164 812 166 795 164 804 b 245 900 164 869 189 891 l 245 1005 b 50 811 144 1005 50 955 l 50 572 "},"π":{"x_min":4.078125,"x_max":747.25,"ha":776,"o":"m 733 575 l 747 748 l 219 748 b 4 698 110 748 36 726 l 24 562 b 134 575 50 570 83 575 b 62 0 133 436 104 179 l 243 0 b 319 575 288 168 314 441 l 464 575 l 464 195 b 487 0 464 105 470 34 l 668 0 b 653 198 658 45 653 104 l 653 575 l 733 575 "},"O":{"x_min":61.25,"x_max":646.53125,"ha":722,"o":"m 412 208 b 353 161 412 170 396 161 b 295 208 311 161 295 170 l 295 797 b 353 844 295 834 311 844 b 412 797 396 844 412 834 l 412 208 m 61 195 b 353 -11 61 31 164 -11 b 646 195 543 -11 646 31 l 646 809 b 353 1016 646 973 543 1016 b 61 809 164 1016 61 973 l 61 195 "},"n":{"x_min":63.96875,"x_max":567.578125,"ha":644,"o":"m 63 0 l 265 0 l 265 506 b 314 555 265 537 279 555 b 366 506 352 555 366 537 l 366 0 l 567 0 l 567 556 b 409 719 567 679 498 719 b 268 630 344 719 296 693 l 265 630 l 265 708 l 63 708 l 63 0 "},"3":{"x_min":50.359375,"x_max":601.609375,"ha":694,"o":"m 50 712 l 259 712 l 259 804 b 318 852 259 844 274 852 b 372 766 362 852 372 844 b 259 600 372 612 363 600 l 198 600 l 198 436 l 295 436 b 383 293 375 436 383 430 b 319 152 383 176 378 152 b 259 220 265 152 259 175 l 259 334 l 50 334 l 50 193 b 315 -11 50 56 84 -11 b 601 269 558 -11 601 62 b 460 529 601 441 589 509 l 460 531 b 590 786 571 551 590 587 b 321 1016 590 951 545 1016 b 50 822 132 1016 50 961 l 50 712 "},"9":{"x_min":50.359375,"x_max":630.203125,"ha":694,"o":"m 276 805 b 340 852 276 843 289 852 b 404 805 390 852 404 843 l 404 611 b 340 558 404 572 381 558 b 276 613 288 558 276 573 l 276 805 m 58 173 b 307 -11 58 43 78 -11 b 630 327 556 -11 630 13 l 630 801 b 343 1016 630 980 559 1016 b 50 663 70 1016 50 966 b 255 402 50 472 65 402 b 396 475 337 402 366 423 l 401 475 l 401 209 b 336 152 401 161 378 152 b 276 202 281 152 276 166 l 276 302 l 58 302 l 58 173 "},"l":{"x_min":63.96875,"x_max":265.421875,"ha":336,"o":"m 63 0 l 265 0 l 265 1005 l 63 1005 l 63 0 "},"¤":{"x_min":-16.21875,"x_max":696.21875,"ha":694,"o":"m 155 502 b 340 699 155 613 233 699 b 524 502 446 699 524 613 b 340 305 524 391 446 305 b 155 502 233 305 155 391 m -16 227 l 70 138 l 149 219 b 340 157 204 180 269 157 b 530 219 410 157 477 180 l 609 138 l 696 227 l 617 307 b 677 502 655 363 677 430 b 617 697 677 573 655 640 l 696 777 l 609 866 l 531 787 b 340 847 478 824 412 847 b 149 787 270 847 205 824 l 70 866 l -16 777 l 61 698 b 2 502 24 644 2 576 b 62 307 2 430 24 362 l -16 227 "},"∂":{"x_min":47.640625,"x_max":668.3125,"ha":746,"o":"m 133 895 b 291 962 167 927 219 962 b 483 662 413 962 483 804 l 483 620 l 481 620 b 319 709 464 651 408 709 b 47 331 172 709 47 570 b 311 -4 47 176 136 -4 b 668 593 537 -4 668 218 b 317 1130 668 959 500 1130 b 85 1051 197 1130 125 1083 l 133 895 m 329 166 b 234 320 269 166 234 236 b 356 547 234 434 280 547 b 468 454 420 547 460 490 b 330 166 458 329 412 166 l 329 166 "},"4":{"x_min":25.859375,"x_max":637,"ha":694,"o":"m 25 206 l 366 206 l 366 0 l 575 0 l 575 206 l 637 206 l 637 379 l 575 379 l 575 1005 l 239 1005 l 25 447 l 25 206 m 366 379 l 202 379 l 363 883 l 366 883 l 366 379 "},"p":{"x_min":63.96875,"x_max":567.578125,"ha":644,"o":"m 265 516 b 311 555 265 543 281 555 b 357 516 341 555 357 543 l 357 191 b 311 152 357 165 341 152 b 265 191 281 152 265 165 l 265 516 m 63 -261 l 265 -261 l 265 62 l 268 62 b 416 -11 300 15 344 -11 b 567 131 502 -11 567 22 l 567 526 b 405 719 567 670 528 719 b 259 634 333 719 298 708 l 257 634 l 257 708 l 63 708 l 63 -261 "},"‡":{"x_min":61.25,"x_max":494.078125,"ha":567,"o":"m 61 218 l 176 218 l 176 0 l 378 0 l 378 218 l 494 218 l 494 406 l 378 406 l 378 605 l 494 605 l 494 794 l 378 794 l 378 1005 l 176 1005 l 176 794 l 61 794 l 61 605 l 176 605 l 176 406 l 61 406 l 61 218 "},"à":{"x_min":31.234375,"x_max":540.28125,"ha":617,"o":"m 61 504 l 238 504 l 238 543 b 287 579 238 569 257 579 b 338 544 321 579 338 568 l 338 389 b 205 434 300 420 254 434 b 31 218 95 434 31 391 b 198 -10 31 72 59 -10 b 344 59 274 -10 300 0 l 347 59 l 347 0 l 540 0 l 540 518 b 283 718 540 691 462 718 b 61 593 129 718 61 697 l 61 504 m 240 244 b 289 304 240 291 257 304 b 338 252 329 304 338 289 l 338 195 b 289 144 338 168 332 144 b 240 204 253 144 242 158 l 240 244 m 278 798 l 413 798 l 288 1004 l 77 1004 l 278 798 "},"Ü":{"x_min":68.0625,"x_max":639.71875,"ha":722,"o":"m 639 1005 l 413 1005 l 413 233 b 353 169 413 194 398 169 b 294 233 308 169 294 194 l 294 1005 l 68 1005 l 68 240 b 353 -11 68 16 172 -11 b 639 240 534 -11 639 16 l 639 1005 m 130 1062 l 307 1062 l 307 1226 l 130 1226 l 130 1062 m 400 1062 l 577 1062 l 577 1226 l 400 1226 l 400 1062 "},"ó":{"x_min":50.28125,"x_max":581.921875,"ha":644,"o":"m 50 213 b 315 -11 50 23 142 -11 b 581 213 489 -11 581 23 l 581 494 b 315 719 581 684 489 719 b 50 494 142 719 50 684 l 50 213 m 260 512 b 315 563 260 555 276 563 b 371 512 355 563 371 555 l 371 195 b 315 144 371 152 355 144 b 260 195 276 144 260 152 l 260 512 m 204 800 l 339 800 l 541 1005 l 329 1005 l 204 800 "},"√":{"x_min":42,"x_max":762,"ha":771,"o":"m 762 1197 l 635 1197 l 433 200 b 413 49 423 140 417 81 l 410 50 b 384 188 405 83 394 136 l 277 589 l 42 492 l 70 379 l 163 417 l 337 -186 l 485 -186 l 762 1197 "}}}
